STARTFONT 2.3
FONT -FontForge-Shadows Into Light-Book-R-Normal--24-240-72-72-P-99-ISO10646-1
SIZE 24 72 72  4
FONTBOUNDINGBOX 35 40 -5 -11
COMMENT "Generated by fontforge, http://fontforge.sourceforge.net"
COMMENT "Copyright (c) 2010, Kimberly Geswein (kimberlygeswein.com)"
STARTPROPERTIES 40
FOUNDRY "FontForge"
FAMILY_NAME "Shadows Into Light"
WEIGHT_NAME "Book"
SLANT "R"
SETWIDTH_NAME "Normal"
ADD_STYLE_NAME ""
PIXEL_SIZE 24
POINT_SIZE 240
RESOLUTION_X 72
RESOLUTION_Y 72
SPACING "P"
AVERAGE_WIDTH 99
CHARSET_REGISTRY "ISO10646"
CHARSET_ENCODING "1"
FONTNAME_REGISTRY ""
CHARSET_COLLECTIONS "ISO8859-2 ISO8859-9 ISO8859-4 ISO10646-1"
BITS_PER_PIXEL 4
FONT_NAME "ShadowsIntoLight"
FACE_NAME "Shadows Into Light"
COPYRIGHT "Copyright (c) 2010, Kimberly Geswein (kimberlygeswein.com)"
FONT_VERSION "001.000"
FONT_ASCENT 19
FONT_DESCENT 5
UNDERLINE_POSITION 0
UNDERLINE_THICKNESS 0
X_HEIGHT 14
CAP_HEIGHT 16
RAW_ASCENT 799
RAW_DESCENT 200
NORM_SPACE 11
RELATIVE_WEIGHT 40
RELATIVE_SETWIDTH 50
SUPERSCRIPT_X 0
SUPERSCRIPT_Y 11
SUPERSCRIPT_SIZE 15
SUBSCRIPT_X 0
SUBSCRIPT_Y 3
SUBSCRIPT_SIZE 15
AVG_LOWERCASE_WIDTH 90
AVG_UPPERCASE_WIDTH 115
ENDPROPERTIES
CHARS 352
STARTCHAR space
ENCODING 32
SWIDTH 450 0
DWIDTH 11 0
BBX 1 1 0 0
BITMAP
00
ENDCHAR
STARTCHAR exclam
ENCODING 33
SWIDTH 137 0
DWIDTH 3 0
BBX 3 21 0 0
BITMAP
1300
5900
5900
6900
7900
8900
8900
8900
9900
9A00
AC00
9E00
5A00
0000
0000
0000
0000
0000
0000
0150
01B0
ENDCHAR
STARTCHAR quotedbl
ENCODING 34
SWIDTH 212 0
DWIDTH 5 0
BBX 5 7 0 12
BITMAP
4B0610
3D0A30
2E0A30
1F0A30
0F1A30
0D1A30
091110
ENDCHAR
STARTCHAR numbersign
ENCODING 35
SWIDTH 450 0
DWIDTH 11 0
BBX 10 14 1 2
BITMAP
0000040000
00000E0000
03B00E2000
03F10E6000
00F30EFA20
13FBCF9000
6FF80A8001
01E30A83B8
00E40AFC30
00E77FE100
01EE76D000
8FF801E000
347500C100
0015001000
ENDCHAR
STARTCHAR dollar
ENCODING 36
SWIDTH 445 0
DWIDTH 11 0
BBX 10 22 0 -3
BITMAP
0000170000
00005C0000
00008C0000
00007C3300
0001BFE900
002CFC0000
03E88B0000
2E707B0000
AC007B0000
DA007E0000
7FCBDFDA50
00345F016C
00000F101D
00000E31B6
00000DAD60
00004EE400
0008DEA000
000109A000
000005D000
000002F100
000000D300
0000006100
ENDCHAR
STARTCHAR percent
ENCODING 37
SWIDTH 450 0
DWIDTH 11 0
BBX 11 19 0 0
BITMAP
0000001C2000
0000005E0000
037300AA0000
3E7B20E50000
8B0544F10000
990A18B00000
8A980C700000
2DA01F300000
00004E000000
00007A003100
0000A603FD00
0000D306CB40
0001E0068A40
0003B007CE00
00067005F600
000840001000
000A10000000
000A00000000
000800000000
ENDCHAR
STARTCHAR ampersand
ENCODING 38
SWIDTH 356 0
DWIDTH 9 0
BBX 8 12 0 2
BITMAP
00002100
0000C300
0000C300
0000C200
0000C27B
0AEBDCE3
6709FD20
9309F800
858CB800
4EA1B800
0000C700
00003100
ENDCHAR
STARTCHAR quotesingle
ENCODING 39
SWIDTH 155 0
DWIDTH 4 0
BBX 3 7 0 8
BITMAP
2E10
2F50
1F60
0E60
0C50
0A50
0540
ENDCHAR
STARTCHAR parenleft
ENCODING 40
SWIDTH 291 0
DWIDTH 7 0
BBX 7 20 0 0
BITMAP
00000640
00003E20
0001D600
000AA000
004E2000
00C80000
03E10000
09900000
0E400000
3E000000
6C000000
8A000000
99000000
99000000
6B000000
2E000000
0C500000
05D10000
00AB1000
0009D600
ENDCHAR
STARTCHAR parenright
ENCODING 41
SWIDTH 241 0
DWIDTH 6 0
BBX 6 18 0 0
BITMAP
5B1000
1BA000
01C700
003E10
000A70
0005B0
0002E0
0000E0
0000D1
0000C2
0000C1
0000E0
0004D0
0009A0
001E50
006E10
00B600
007000
ENDCHAR
STARTCHAR asterisk
ENCODING 42
SWIDTH 481 0
DWIDTH 12 0
BBX 11 13 0 1
BITMAP
000021000000
0000C3011000
0000C40A9000
0000C46D2000
4D82C9D21340
03CFFFBDFD80
012BFFC51000
7FEDFEEB2000
120BCD18E800
00AF3E002700
07F50D200000
04500B300000
000004100000
ENDCHAR
STARTCHAR plus
ENCODING 43
SWIDTH 466 0
DWIDTH 11 0
BBX 11 12 0 2
BITMAP
000021000000
0000C3000000
0000C3000000
0000C3000000
0000C3000340
0000C67BFD80
0125EE951000
7FDAF8000000
1200D8000000
0000A8000000
000078000000
000012000000
ENDCHAR
STARTCHAR comma
ENCODING 44
SWIDTH 112 0
DWIDTH 3 0
BBX 3 6 0 -3
BITMAP
1B30
4F60
1F60
1F30
2E00
2600
ENDCHAR
STARTCHAR hyphen
ENCODING 45
SWIDTH 399 0
DWIDTH 10 0
BBX 9 4 0 4
BITMAP
0000005AB0
00028EFD80
38CFC72000
5861000000
ENDCHAR
STARTCHAR period
ENCODING 46
SWIDTH 128 0
DWIDTH 3 0
BBX 3 2 0 0
BITMAP
1720
4F40
ENDCHAR
STARTCHAR slash
ENCODING 47
SWIDTH 306 0
DWIDTH 7 0
BBX 7 19 0 -2
BITMAP
00000670
00000C50
00002F10
00006B00
0000B600
0001F200
0005C000
000A7000
000E3000
004D0000
00880000
00D40000
02E00000
07900000
0C500000
1E100000
6A000000
A6000000
A1000000
ENDCHAR
STARTCHAR zero
ENCODING 48
SWIDTH 308 0
DWIDTH 7 0
BBX 7 13 0 0
BITMAP
003BB200
02D45D00
09600C30
0C000750
1C000580
2D000490
2D000490
2E000480
0E000770
0B300A40
07602E10
02C2BA00
007FB100
ENDCHAR
STARTCHAR one
ENCODING 49
SWIDTH 112 0
DWIDTH 3 0
BBX 2 15 0 0
BITMAP
3A
3B
3B
3C
3C
3C
4D
4D
4D
3E
3E
2E
1F
0F
0C
ENDCHAR
STARTCHAR two
ENCODING 50
SWIDTH 512 0
DWIDTH 12 0
BBX 12 14 0 0
BITMAP
00018B400000
004ECCE00000
04F701E40000
3E5000C50000
350000E40000
000001F10000
000005D00000
00000A800000
00001E300000
00007C000000
0001E6000487
0008D15AED81
002EEEB62000
003A50000000
ENDCHAR
STARTCHAR three
ENCODING 51
SWIDTH 461 0
DWIDTH 11 0
BBX 11 17 0 0
BITMAP
000015710000
005BFDF80000
2CE710980000
7C1000C30000
010008A00000
00006E100000
0005F7320000
003EFEBBD700
02EF81001D60
016200000990
000000000A70
000000003E20
00000002D700
0000003EA000
000007FA0000
00009F800000
0000C5000000
ENDCHAR
STARTCHAR four
ENCODING 52
SWIDTH 503 0
DWIDTH 12 0
BBX 12 19 0 0
BITMAP
000000064000
0000002F8000
000000AF8000
000003FF8000
00000CDC8000
00005F4B8000
0000D90B8000
0007D00B8000
002E400B8000
00C9000BA686
07F237BFEA83
7FFDB74B8000
7630000B8000
0000000B8000
0000000B8000
0000000B8000
0000000B8000
0000000B8000
0000000A5000
ENDCHAR
STARTCHAR five
ENCODING 53
SWIDTH 478 0
DWIDTH 11 0
BBX 11 17 0 0
BITMAP
000000002570
1C80259CBA90
7FEDC8300000
6FE500000000
0E8000000000
0E5000000000
0F4004850000
0F41AECF4000
0F5B910A9000
0FD600099000
0E60000B6000
0200003F2000
000000BA0000
000008E20000
00005F600000
0001E9000000
000290000000
ENDCHAR
STARTCHAR six
ENCODING 54
SWIDTH 375 0
DWIDTH 9 0
BBX 9 20 0 0
BITMAP
0016000000
006D000000
009A000000
00C6000000
00E3000000
02F0000000
05C0000000
0790000000
0A60000000
0D30000000
1F00003510
3D001BEE60
6C00BC2850
6C05D20A20
6C0D401C00
5C4B009600
3E9503E100
0EF20C6000
08F9BB0000
00AFB10000
ENDCHAR
STARTCHAR seven
ENCODING 55
SWIDTH 458 0
DWIDTH 11 0
BBX 11 18 0 0
BITMAP
000002579A10
048BEFFFFF10
6BA86310DA00
00000005F300
00000009D000
0000000C8000
0000000F3000
0000003E0000
0000006A0000
000000870000
000000B50000
000000D40000
000000E30000
000000F30000
000001F40000
000001F60000
000000E90000
0000008B0000
ENDCHAR
STARTCHAR eight
ENCODING 56
SWIDTH 333 0
DWIDTH 8 0
BBX 8 17 0 0
BITMAP
00029A20
005DCFC0
04D1DFE1
0E4032A1
5D0000C0
8B0002B0
7C000860
2E201E10
06D2A900
007EF200
000AF200
000D8A00
00480750
00A201C0
00D000C1
00E427C0
008FEA20
ENDCHAR
STARTCHAR nine
ENCODING 57
SWIDTH 475 0
DWIDTH 11 0
BBX 11 17 0 0
BITMAP
000000220000
00005DFEC100
0008E715F800
007D200DFC00
03F3009F7D00
0C8006F63D00
3E105F902D00
8806FB001E00
AAAFA0000F00
5ED600000F20
000000000E30
000000000D40
000000000C50
000000000B70
000000000B70
000000000A80
000000000960
ENDCHAR
STARTCHAR colon
ENCODING 58
SWIDTH 120 0
DWIDTH 3 0
BBX 3 9 0 2
BITMAP
1200
6C00
1300
0000
0000
0000
0200
1F10
0300
ENDCHAR
STARTCHAR semicolon
ENCODING 59
SWIDTH 121 0
DWIDTH 3 0
BBX 3 10 0 -3
BITMAP
3F20
0200
0000
0000
1B30
4F60
1F60
1F30
2E00
2600
ENDCHAR
STARTCHAR less
ENCODING 60
SWIDTH 409 0
DWIDTH 10 0
BBX 9 13 1 3
BITMAP
0000000110
0000001B80
000002CD10
00004ED200
0006FC1000
008F700000
1BD3000000
BD10000000
7F81000000
05ED500000
002AFB3000
00004DFC10
0000008A00
ENDCHAR
STARTCHAR equal
ENCODING 61
SWIDTH 433 0
DWIDTH 10 0
BBX 10 7 0 2
BITMAP
0000002451
079BDFFB50
09B9741000
0000000146
000027CFE8
179DD85300
4C83000000
ENDCHAR
STARTCHAR greater
ENCODING 62
SWIDTH 450 0
DWIDTH 11 0
BBX 9 14 1 2
BITMAP
8600000000
9FC4000000
03CFA20000
0005CF8100
000006DD20
0000000E50
0000005E10
000005E400
00008F5000
002BF50000
03EE400000
4EC2000000
C800000000
1000000000
ENDCHAR
STARTCHAR question
ENCODING 63
SWIDTH 445 0
DWIDTH 11 0
BBX 11 22 0 0
BITMAP
00038BDDA300
17DFB5449E10
9FB300000F30
110000002E10
00000000A900
00000006E100
0000006F5000
000007F70000
00007F800000
0004F8000000
000CA0000000
000F80000000
000BF9980000
000169720000
000000000000
000000000000
000000000000
000000000000
000000000000
000000000000
000053000000
000099000000
ENDCHAR
STARTCHAR at
ENCODING 64
SWIDTH 945 0
DWIDTH 23 0
BBX 23 22 0 0
BITMAP
000000000003798400000000
0000000006DFBA9DC3000000
00000003CD6100006E300000
0000005E8000000006D00000
000005E40000000000C60000
00004E3000166100006C0000
0002E40006ECD700003F0000
000B80008D339700001F1000
006D0007C10CD000001F0000
00D5004E107FD000002E0000
05E001D502E4E000005B0000
0B8007B00C70C30000B60000
1F500E509A007D2019B00000
4F203F3AB10019DED8000000
5F101FF90000000000000000
5F2001000000000000000000
4F400000000000000000AF20
1E900000000000000018E700
09E200000000000006EB2000
01DD300000000017DC500000
001BFB7433458CEA40000000
000049CEFEDB840000000000
ENDCHAR
STARTCHAR A
ENCODING 65
SWIDTH 390 0
DWIDTH 9 0
BBX 12 19 0 -1
BITMAP
009900000000
00BF30000000
00DF90000000
00FAE0000000
01F3B5000000
03F26A000000
04F01E100000
06E00C600000
07D007B00000
09B004F57BE5
0BB002FEA543
0CA05DF90000
0EFEA59D0000
0FB2002F1000
1F20000D5000
3F0000089000
4E000004D000
25000000C000
000000001000
ENDCHAR
STARTCHAR B
ENCODING 66
SWIDTH 537 0
DWIDTH 13 0
BBX 13 18 0 0
BITMAP
00000045300000
11018EEDF40000
6C5EA400E40000
2FF50006D00000
0E80002E400000
0C7001C6000000
0A800B858AA700
08A0BFD9537F40
05EBFB20000E20
03FF9000006800
01FC000004D100
00E500003E4000
00C50003E70000
0097003E900000
007A02EB000000
005C0CB1000000
003D1600000000
00090000000000
ENDCHAR
STARTCHAR C
ENCODING 67
SWIDTH 487 0
DWIDTH 12 0
BBX 12 19 0 -1
BITMAP
000004630000
00009ECF3000
0006E2078000
001E50000000
007C00000000
00C700000000
02F100000000
06C000000000
0A8000000000
0D4000000000
1F2000000000
3E00000004E1
5C0000000BC0
6C0000006F30
5D000003F600
2F20003E7000
0AC448E60000
01BFFA200000
000010000000
ENDCHAR
STARTCHAR D
ENCODING 68
SWIDTH 554 0
DWIDTH 13 0
BBX 13 18 0 0
BITMAP
00540000000000
009C8765200000
06FFAAACED7100
5EDC000004BD10
11AB0000000A90
008B00000006B0
007C0000000790
006C0000000C40
005D0000004D00
004D000000C600
003E000008D000
002E00005F3000
001F0003F70000
000E103E900000
000D12EB000000
000C3DC1000000
0002BC10000000
0002C100000000
ENDCHAR
STARTCHAR E
ENCODING 69
SWIDTH 474 0
DWIDTH 11 0
BBX 11 18 0 0
BITMAP
000000025300
2E4016CE8100
1E97EE810000
0DFE81000000
0BB100000000
099000000000
08A000003000
07B0002B9000
06C019E70000
05D7E9100000
05FC20000000
05F300000000
05F3000019D0
04F30005EA10
05F3019E5000
05F46EA10000
05FFD4000000
02A600000000
ENDCHAR
STARTCHAR F
ENCODING 70
SWIDTH 428 0
DWIDTH 10 0
BBX 10 17 0 0
BITMAP
000000027A
3F10029FA3
4F14AF9200
4FEF920000
4F91000000
4F30000000
4F40000000
3F50000025
3F500018D5
2F6006D910
2F74CC3000
1FEE600000
0FB1000000
0D70000000
0C70000000
0A70000000
0560000000
ENDCHAR
STARTCHAR G
ENCODING 71
SWIDTH 591 0
DWIDTH 14 0
BBX 14 19 0 -3
BITMAP
00000004880000
000001BFC70000
00001C92000000
0000AB00000000
0006D100000000
001E5000000000
007B0000014796
01E30003BFFFD3
07B00002336F60
0C50000000BF20
2F10000006FF00
5C0000003EFE00
7B000003EC7D00
6E30017EA16D00
1CFDCFE7007D00
016AA710007E00
00000000006F00
00000000004F20
00000000000710
ENDCHAR
STARTCHAR H
ENCODING 72
SWIDTH 424 0
DWIDTH 10 0
BBX 10 16 0 0
BITMAP
3B00003C00
4F00002F30
4F00000D40
3F10000B60
2F10000B70
2F10000B80
1F20001FA0
1F3001BFB0
0F517E96D0
0FDEB203E0
0EE50002F0
0E600001F2
0D300000E3
0D400000D5
0C600000C6
0B50000084
ENDCHAR
STARTCHAR I
ENCODING 73
SWIDTH 153 0
DWIDTH 4 0
BBX 2 18 1 0
BITMAP
96
99
8A
7B
6C
6C
5D
5D
5E
4E
4E
4E
4F
4F
3F
3F
2F
1C
ENDCHAR
STARTCHAR J
ENCODING 74
SWIDTH 371 0
DWIDTH 9 0
BBX 9 20 0 -2
BITMAP
0000001000
000005A000
000004C000
000003E000
000002F200
000001F400
000000E600
000000C900
000000AB00
0000008C00
0000006E00
0000005F00
0000003F10
0000001F10
3000001F20
9200000F20
4B00001F00
0B80004C00
01BA67E400
0004772000
ENDCHAR
STARTCHAR K
ENCODING 75
SWIDTH 524 0
DWIDTH 13 0
BBX 13 17 0 0
BITMAP
02000000000000
4E100000110000
1F300002D30000
0D40001D800000
0B6000AD100000
0A8004F3000000
08901D80000000
07B08C00000000
06D3E200000000
04EC8000000000
03FF1000000000
02FB0000000000
00FD9766655520
00ECAAAAAAAA30
00C70000000000
00890000000000
00470000000000
ENDCHAR
STARTCHAR L
ENCODING 76
SWIDTH 537 0
DWIDTH 13 0
BBX 13 15 0 0
BITMAP
4F400000000000
4F500000000000
3F600000000000
2F700000000000
1F700000000000
1F800000000000
0F800000000000
0F900000000000
0F900000000000
0EA00000000430
0EA0000005CF70
0DB00016DD6100
0DB017ED600000
0DDAFD60000000
0BEB6000000000
ENDCHAR
STARTCHAR M
ENCODING 77
SWIDTH 682 0
DWIDTH 16 0
BBX 16 19 0 0
BITMAP
1410000000002200
4FC200000000B900
1FFB00000001FA00
0D7E50000006DC00
0C47D000000B7D00
0A41E600001E2E00
09607D00006A0F00
08701E6000A50E10
089008D001E10D20
07A001E605B00C40
07C0008D0A600A50
07D0001E8E100970
07F00008F9000890
06F10001C20006B0
06F30000000005D0
05F40000000004F1
05F50000000002F4
04F60000000001F7
02F50000000000D5
ENDCHAR
STARTCHAR N
ENCODING 78
SWIDTH 541 0
DWIDTH 13 0
BBX 13 19 0 0
BITMAP
00000000022000
0000000008C000
0000000005F100
2400000003F300
4F70000001F400
2FF5000000F400
1FFE200000E400
0E9DC00000E500
0C82E80000D500
0B805F4000D500
099008E200C600
07B000BC00C600
06D0001D80D700
04F00003E4D700
02F200006EF800
00F4000009FA00
00E5000000DF10
00D60000008A00
00A50000000000
ENDCHAR
STARTCHAR O
ENCODING 79
SWIDTH 382 0
DWIDTH 9 0
BBX 9 17 0 0
BITMAP
0000020000
0004DFD300
002EC7BE10
00AA001E70
02F3000AA0
08D00008C0
0C900007D0
1F400008D0
4F100009C0
6D00000B90
8B00000E60
9900004F30
9900008E00
7B0001E700
3F200AD100
0BE9CE3000
02CEA20000
ENDCHAR
STARTCHAR P
ENCODING 80
SWIDTH 508 0
DWIDTH 12 0
BBX 12 20 0 0
BITMAP
000000122000
00B46CFFFE60
07FFB5114BF5
1EF6000000AA
3AF3000000A8
03F1000004F3
03F000004E70
04F00007F800
04F104CE5000
04F7BF910000
03FFA2000000
03F600000000
03F500000000
02F500000000
01F500000000
00F500000000
00E500000000
00C500000000
00B500000000
009400000000
ENDCHAR
STARTCHAR Q
ENCODING 81
SWIDTH 512 0
DWIDTH 12 0
BBX 12 18 0 0
BITMAP
000AF9DFC200
006FE6339C00
00DD20000B40
03F500000690
08D0000003B0
0B80000001E0
0E50000000F0
1F10000000F0
3E00000200F0
4D00006D00E0
4D00001E51D0
4E000009B4A0
2F100002FD70
0E400000AF30
099000008F30
03E20002DDC0
008D537D53F5
0006DFC30074
ENDCHAR
STARTCHAR R
ENCODING 82
SWIDTH 503 0
DWIDTH 12 0
BBX 12 19 0 0
BITMAP
1E6001564100
1F719EFEEF91
1FCEA41006F7
1FD2000004F3
1F7000004D50
1F500018D300
1F4005D91000
1F34CC300000
1FCF80000000
1FD300000000
1FE810000000
1FBFE7100000
0F129FE70000
0F10029FE710
0F1000018EE7
0F1000000179
0F1000000000
0F1000000000
0A0000000000
ENDCHAR
STARTCHAR S
ENCODING 83
SWIDTH 541 0
DWIDTH 13 0
BBX 13 18 0 0
BITMAP
00000004650000
000007DDFD0000
0003C910620000
004E5000000000
03E50000000000
0D800000000000
6E100000000000
A9000000000000
A8000000000000
5E300000000000
06DA7421000000
00048ADEECA400
00000000137F30
00000000005F40
000000003AE600
0000038DE91000
0008EFB6100000
00175100000000
ENDCHAR
STARTCHAR T
ENCODING 84
SWIDTH 595 0
DWIDTH 14 0
BBX 17 17 0 0
BITMAP
00000009B3578ABD70
01368ACFFEDCA96200
8FFDA759F000000000
23100005F000000000
00000003F000000000
00000001F100000000
00000000F300000000
00000000E500000000
00000000C700000000
00000000B900000000
000000009B00000000
000000008D00000000
000000006F00000000
000000005F10000000
000000003F20000000
000000000F30000000
000000000C40000000
ENDCHAR
STARTCHAR U
ENCODING 85
SWIDTH 450 0
DWIDTH 11 0
BBX 11 18 0 -3
BITMAP
030000003A00
4F3000007F10
4F300000AF00
3F300000CF00
3F300000EE00
2F300002FD00
2F300005FC00
1F300008FC00
1F30000CFB00
0F30001FAC00
0F30005E5C00
0D4000B73E00
0A9005E11F00
05FA9E400F20
006B93000E30
000000000C40
000000000B50
000000000720
ENDCHAR
STARTCHAR V
ENCODING 86
SWIDTH 524 0
DWIDTH 13 0
BBX 12 18 0 0
BITMAP
000000000014
00000000005E
00000000009B
0000000000C7
9B00000001F4
3F40000004F1
0BB0000008D0
05F300000C90
00DA00001F60
006F20004F30
000D90008E00
0007F200BB00
0001E900E800
00008F13F500
00001F87F100
000009EBD000
000002FFA000
0000004D6000
ENDCHAR
STARTCHAR W
ENCODING 87
SWIDTH 878 0
DWIDTH 21 0
BBX 21 19 0 -1
BITMAP
0000000000000000000A10
0000000000000000003F10
0000000000000000007C00
2B00000000AB000000A800
6F50000000EF300000E500
1EA0000003EF800003F100
07E00000089BC00006C000
02F400000C46F2000A8000
00C900002E01F6000E5000
008D00007A00AB003F1000
004F3000C5005F106C0000
001F8002F1000D60A90000
000CD006B00007D0E50000
0008F20C700001E8F10000
0004F72F2000007FD00000
0000EC7D0000000DA00000
00009FDA00000004300000
00002FF300000000000000
0000032000000000000000
ENDCHAR
STARTCHAR X
ENCODING 88
SWIDTH 461 0
DWIDTH 11 0
BBX 11 17 0 0
BITMAP
000000000740
054000002E10
09C00000A700
02F40004E100
00AC000C6000
003F406D0000
000BB1E50000
0004FBC00000
0000CF400000
0000CF300000
0003FEB00000
000C93F40000
007D108C0000
03F5001E5000
0CA00008C000
3D200001F500
000000009800
ENDCHAR
STARTCHAR Y
ENCODING 89
SWIDTH 483 0
DWIDTH 12 0
BBX 12 19 0 0
BITMAP
000000000070
0000000001F1
0000000005B0
200000000A70
890000000E30
1E5000005D00
07E30000A900
00BD1001F400
001DB006E000
0002EB0B9000
00004EDF4000
000004FD0000
000000F80000
000003F30000
000007D00000
00000C800000
00002F300000
00005D000000
000068000000
ENDCHAR
STARTCHAR Z
ENCODING 90
SWIDTH 670 0
DWIDTH 16 0
BBX 16 17 0 0
BITMAP
1555555555554100
0AAAAAABCDEFF500
00000000003FB000
0000000001DD1000
000000000BF30000
000000007F600000
00000004F9000000
0000002EB0000000
000000CD10000000
000009F300000000
00006F6000000000
0003F90000000000
001DB00000000000
00BD100000000000
08F3000000000000
4FECCCCCCCCCDEF7
4FEDCCBBBAAA9872
ENDCHAR
STARTCHAR bracketleft
ENCODING 91
SWIDTH 470 0
DWIDTH 11 0
BBX 11 30 0 -3
BITMAP
2677899AA500
6F9887642000
5F1000000000
4F0000000000
3F1000000000
1F1000000000
0F2000000000
0E3000000000
0C4000000000
0B5000000000
0A7000000000
088000000000
07A000000000
06B000000000
04D000000000
03E000000000
02F100000000
00F200000000
00E300000000
00D400000000
00B500000000
00A500000000
009600000000
009600000000
009700000000
009800000000
009900001550
009D579CEB60
008FFC840000
001510000000
ENDCHAR
STARTCHAR backslash
ENCODING 92
SWIDTH 554 0
DWIDTH 13 0
BBX 13 25 0 0
BITMAP
11000000000000
8D000000000000
2F500000000000
07D00000000000
00C50000000000
005C0000000000
000D5000000000
0006C000000000
0000E400000000
00007C00000000
00001E40000000
000009B0000000
000002F4000000
000000AB000000
0000003F300000
0000000BB00000
00000005F30000
00000000DA0000
000000006F3000
000000000EA000
0000000007F200
0000000001E900
00000000009F20
00000000002F90
00000000000AD0
ENDCHAR
STARTCHAR bracketright
ENCODING 93
SWIDTH 512 0
DWIDTH 12 0
BBX 12 32 0 -3
BITMAP
000000123310
7BCDEFFFFFC0
899753102FA0
000000000F90
000000000F80
000000000E70
000000000E70
000000000E70
000000000E70
000000000D70
000000000D80
000000000C80
000000000B90
000000000A90
0000000009A0
0000000009A0
0000000008B0
0000000007C0
0000000006D0
0000000005E0
0000000004E0
0000000004F0
0000000003F1
0000000003F2
0000000002F4
0000000002F5
0000000002F6
0000000001F7
0000000001F9
000000026BFA
000019DFFD93
000004531000
ENDCHAR
STARTCHAR asciicircum
ENCODING 94
SWIDTH 390 0
DWIDTH 9 0
BBX 9 7 0 16
BITMAP
0001400000
0009F40000
002E6E3000
00A805D100
03D1008C10
0B60000BD0
3C00000160
ENDCHAR
STARTCHAR underscore
ENCODING 95
SWIDTH 612 0
DWIDTH 15 0
BBX 15 5 0 0
BITMAP
0000000000001300
00000000259CFF10
000026ADFFFC9400
159DFFD963000000
7EC8410000000000
ENDCHAR
STARTCHAR grave
ENCODING 96
SWIDTH 155 0
DWIDTH 4 0
BBX 3 4 0 14
BITMAP
5300
7E20
1DA0
0290
ENDCHAR
STARTCHAR a
ENCODING 97
SWIDTH 366 0
DWIDTH 9 0
BBX 9 13 0 0
BITMAP
00006DD200
0006FDF600
002FA0F600
00BD12F600
03F606F600
0AD00BF800
1F604FCA00
6E10DA5C00
A907F23E00
E42E801F10
E6CD100F20
AFE3000D30
2920000710
ENDCHAR
STARTCHAR b
ENCODING 98
SWIDTH 442 0
DWIDTH 11 0
BBX 10 20 0 0
BITMAP
0DA0000000
0DA0000000
0CA0000000
0C90000000
0D80000000
0D70000000
0D60000000
0D60003410
0E503DFFE1
0E54FB56F7
0F8E70008B
0FF800006C
0FC000008B
1F500001E8
1F10000AF2
1F10007F80
1F101AF900
1F05DF6000
1FCFB20000
0EB5000000
ENDCHAR
STARTCHAR c
ENCODING 99
SWIDTH 390 0
DWIDTH 9 0
BBX 9 15 0 0
BITMAP
0000200000
004EF70000
01EA8C0000
07E14F0000
0BA00D0000
0E60010000
2F30000000
3F00000000
5D00000000
6C00000570
5C00000C80
2E00002F50
0D40009D00
07D439E300
009EEA2000
ENDCHAR
STARTCHAR d
ENCODING 100
SWIDTH 316 0
DWIDTH 8 0
BBX 7 23 0 -2
BITMAP
00000B80
00000B80
00000A80
00000980
00000880
00000780
00000680
00000580
00035880
00BFEF90
08F70B90
1EA00990
4F300990
7D000990
A8000CA0
B6001FA0
C4006FA0
C400C9A0
B606C4B0
AD8D23B0
2BA203B0
000003B0
000002A0
ENDCHAR
STARTCHAR e
ENCODING 101
SWIDTH 461 0
DWIDTH 11 0
BBX 12 13 -1 0
BITMAP
000007A82000
0000BFADE200
0007F501F800
000E901BD300
005F47E91000
00CFFC300000
07FE50000021
1FF9000002E7
00A700000BD1
00A700008F40
00870007E400
005D44AD3000
0009FE810000
ENDCHAR
STARTCHAR f
ENCODING 102
SWIDTH 345 0
DWIDTH 8 0
BBX 8 22 0 0
BITMAP
00015200
000BFE20
002FAB90
005F42C0
007F1020
009E0000
00AC0000
00BB0000
00CA0000
00C90014
00C818EC
00BEFFC2
09FB4100
5BB90000
008A0000
007C0000
007D0000
006F0000
005F1000
004F2000
003F2000
001E1000
ENDCHAR
STARTCHAR g
ENCODING 103
SWIDTH 437 0
DWIDTH 11 0
BBX 10 25 0 -11
BITMAP
0000002100
00003CFF80
0003E94FD0
001D705FE0
009A00BCF1
03E103E7F2
09900A96F3
1E302F35F4
5D00AC04F6
8A04F403F7
9B2DA002F8
4FFD1001F9
07920001FA
00000001FA
00000001FA
00000001F9
00000002F6
00000003F2
00000007E0
0000000B80
0000004F20
000002DA00
00016DD100
00BFFC2000
0002200000
ENDCHAR
STARTCHAR h
ENCODING 104
SWIDTH 466 0
DWIDTH 11 0
BBX 11 19 0 -1
BITMAP
290000000000
3F0000000000
3F1000000000
3F1000000000
3F1000000000
3F2000000000
3F20006AB700
3F200BFEBF40
3F308FC10E60
3F32FD100E70
3F38F5000D70
3F4DB0000D70
3F7F40000D80
3FDC00000C80
3FF500000C80
3FD000000B90
3F5000000B90
180000000B90
000000000110
ENDCHAR
STARTCHAR i
ENCODING 105
SWIDTH 132 0
DWIDTH 3 0
BBX 3 19 0 -1
BITMAP
5600
3700
0000
0000
0910
1F30
2F30
3F30
3F20
3F20
3F20
3F20
2F20
2F20
1F20
1F20
1F20
0F20
0200
ENDCHAR
STARTCHAR j
ENCODING 106
SWIDTH 112 0
DWIDTH 3 0
BBX 8 29 -5 -9
BITMAP
00000010
000002C0
00000000
00000000
00000000
00000000
00000000
00000140
000005E0
000005E0
000005E0
000005E0
000004E0
000004F0
000003F1
000002F2
000001F3
000000F5
000000E6
000000D6
000000C7
000000B7
000000B8
000000C6
140000E4
0E6004F1
03E72DA0
0019EE20
00000100
ENDCHAR
STARTCHAR k
ENCODING 107
SWIDTH 428 0
DWIDTH 10 0
BBX 10 20 0 -1
BITMAP
0220000000
0B80000000
0BA0000000
0CA0000000
0DA0000001
0D900000BA
0E800008F5
0E70003FC0
0F6000CF30
0F5008F900
1F503FD100
1F41DE2000
2F5BF40000
3FEE400000
3FF3000000
4FFC400000
4F39ED8410
5F0006CFF7
5C00000384
4700000000
ENDCHAR
STARTCHAR l
ENCODING 108
SWIDTH 137 0
DWIDTH 3 0
BBX 3 21 0 0
BITMAP
2400
6C00
4D00
2E00
1F00
0E20
0D20
0D30
0C40
0B50
0B60
0A60
0A60
0970
0A70
0A80
0A80
0A90
0B90
0D90
0540
ENDCHAR
STARTCHAR m
ENCODING 109
SWIDTH 579 0
DWIDTH 14 0
BBX 14 15 0 0
BITMAP
16000000000000
4F100000000000
2F300000002000
1F30660009F800
0E45FF602FFD00
0D49FFA08D9F10
0D5D99C0E63F30
0C6F44E4F11F40
0B9F01FCB00F40
0BCC00DF600E50
0AF800AF200D50
09F5007D000D70
09F20011000BB0
08E000000005F2
06800000000010
ENDCHAR
STARTCHAR n
ENCODING 110
SWIDTH 483 0
DWIDTH 12 0
BBX 11 14 0 0
BITMAP
3900005DB100
4E0007FEF800
3F103FA05D00
2F30AE100F20
1F50E9000F40
0F73F3000E70
0E87D0000D80
0DAA80000C90
0CCE40000BA0
0BFE00000AA0
0AFB000009A0
08F8000008A0
07F5000007B0
05D200000230
ENDCHAR
STARTCHAR o
ENCODING 111
SWIDTH 266 0
DWIDTH 6 0
BBX 6 14 0 0
BITMAP
001200
04FF50
09D8D1
0D4078
1F004C
4D003E
6C003F
8C004F
8C006D
8C009B
6C00D6
6D06F1
4F9E70
0CD600
ENDCHAR
STARTCHAR p
ENCODING 112
SWIDTH 482 0
DWIDTH 12 0
BBX 12 20 0 -7
BITMAP
260000000000
5F0004AEEB40
5E03BC6216F1
4D7E500006F1
4FE300000DA0
4F5000009D10
3F000009E300
2F0003CD2000
2F107FC20000
1F6CF9100000
1FFE50000000
1FA200000000
1F2000000000
1F2000000000
1F1000000000
1F0000000000
2F0000000000
3E0000000000
4D0000000000
260000000000
ENDCHAR
STARTCHAR q
ENCODING 113
SWIDTH 408 0
DWIDTH 10 0
BBX 11 19 0 -7
BITMAP
000000100000
00008EF80000
000AD54E0000
007D204F2000
02E3007F4000
09A000AF6000
1E3001EC8000
4E0006C9A000
7B000D86C000
6C11AD14E000
1DFE9102F100
00100001F300
00000000E500
00000000C700
00000000A900
000000008B00
000000006D00
000000004F00
000000001910
ENDCHAR
STARTCHAR r
ENCODING 114
SWIDTH 396 0
DWIDTH 10 0
BBX 9 13 0 0
BITMAP
0000002210
4B003DFFD0
4E01ED5310
2F17E20000
0E3BA00000
0C5D700000
0A7E500000
079F400000
05CF300000
03FF200000
00FF000000
00DE000000
008A000000
ENDCHAR
STARTCHAR s
ENCODING 115
SWIDTH 366 0
DWIDTH 9 0
BBX 9 14 0 -1
BITMAP
0000001000
0005CFF200
009D425000
07E2000000
1E60000000
5E00000000
6C0016A600
3FCCFDEF40
07A7200C70
0000006E10
000007F500
0001BF6000
004EE50000
0037100000
ENDCHAR
STARTCHAR t
ENCODING 116
SWIDTH 268 0
DWIDTH 6 0
BBX 8 20 -1 -1
BITMAP
00120000
007D0000
007C0000
007B0000
008A0000
008A0043
008DAEF7
17EFE920
BFFB1000
66BA0000
00AB0000
009B0000
008C0000
007D0000
007D0000
006E0000
005E0000
004F0000
003F0000
00160000
ENDCHAR
STARTCHAR u
ENCODING 117
SWIDTH 387 0
DWIDTH 9 0
BBX 9 13 0 -1
BITMAP
1900004500
3F00008C00
2F10008B00
2F10009B00
2F20009B00
2F3000AB00
1F4000DB00
0F5004FB00
0D600CFD00
0A806FBE00
06D6FA2F20
01DF900E60
0002000430
ENDCHAR
STARTCHAR v
ENCODING 118
SWIDTH 354 0
DWIDTH 9 0
BBX 8 13 0 0
BITMAP
0000009A
000000AC
110000AD
9C0000AD
3F7000BC
0AE100BB
02F800CA
008F20D9
001EB0E8
0005F7F7
0000BFF7
00002EF7
000004E6
ENDCHAR
STARTCHAR w
ENCODING 119
SWIDTH 566 0
DWIDTH 14 0
BBX 13 13 0 0
BITMAP
00000130000200
3C000AE1000C50
2F400CF9000C70
0BA00E9F300C70
05F10F59B00C60
01E61F41E50C70
009C3F306D1C80
003F8F300C8C80
000DEF2003ED90
0007FF10009FA0
0002FF00001EA0
0000BD00000470
00004B00000000
ENDCHAR
STARTCHAR x
ENCODING 120
SWIDTH 454 0
DWIDTH 11 0
BBX 11 17 0 -2
BITMAP
000003700000
000007F10000
000008F10000
010009D00000
8F300AA00000
2EC00B700000
03E90D400000
003ECF200000
0003EF300000
0000CFD20000
0001FADD2000
0004F21BD200
0008E001BD20
000BB0001B50
000E70000000
003F40000000
001A10000000
ENDCHAR
STARTCHAR y
ENCODING 121
SWIDTH 363 0
DWIDTH 9 0
BBX 9 22 0 -9
BITMAP
0000000610
0000000D30
6B00000E30
3F70000F30
09E1001F30
01E9002F30
005F302F20
000BC03F20
0002F84F10
00007FBF10
00000DFF00
000004FE00
0000009D00
0000006C00
0000007B00
0000008A00
000000A900
000000B800
000000C700
000000D500
000000E400
000000F300
ENDCHAR
STARTCHAR z
ENCODING 122
SWIDTH 618 0
DWIDTH 15 0
BBX 16 13 0 -1
BITMAP
0000005AE6000000
00038EEBF6000000
3ADFB619F2000000
1861001EB0000000
0000008F30000000
000001E800000000
000007D100000000
00000E6000000000
00005E0000000230
0000BA00158BEFF4
0001FCADFFFCA740
0003FEB853000000
0001200000000000
ENDCHAR
STARTCHAR braceleft
ENCODING 123
SWIDTH 348 0
DWIDTH 8 0
BBX 9 23 0 -2
BITMAP
0000353000
001CEABC10
00BD200610
02F4000000
03F1000000
00E3000000
008A000000
001E500000
001CB00000
5EEA300000
1CA0000000
00C6000000
005F200000
5FFD100000
AF70000000
B900000000
B600000000
B700000000
8A00000000
4F30000000
0CE5000000
02DFB50000
0018CE5000
ENDCHAR
STARTCHAR bar
ENCODING 124
SWIDTH 137 0
DWIDTH 3 0
BBX 3 21 0 0
BITMAP
2400
6C00
4D00
2E00
1F00
0E20
0D20
0D30
0C40
0B50
0B60
0A60
0A60
0970
0A70
0A80
0A80
0A90
0B90
0D90
0540
ENDCHAR
STARTCHAR braceright
ENCODING 125
SWIDTH 348 0
DWIDTH 8 0
BBX 9 23 -1 -3
BITMAP
04BDB40000
1D229F4000
00000AC000
000004E000
000004D000
0000089000
00002E2000
0000990000
00009D7500
000004DE10
000002D300
00001C5000
00005F7500
000008FF30
0000004F50
0000000A60
0000000A60
0000000B50
0000001E20
000000BC00
00003CF400
002BFF6000
0039610000
ENDCHAR
STARTCHAR asciitilde
ENCODING 126
SWIDTH 458 0
DWIDTH 11 0
BBX 10 5 0 13
BITMAP
0002100000
03DFF70069
0DA09E13FA
1E201DCEC1
000003A810
ENDCHAR
STARTCHAR nonbreakingspace
ENCODING 160
SWIDTH 450 0
DWIDTH 11 0
BBX 1 1 0 0
BITMAP
00
ENDCHAR
STARTCHAR exclamdown
ENCODING 161
SWIDTH 137 0
DWIDTH 3 0
BBX 3 16 0 -4
BITMAP
01A0
0010
0000
0000
0000
0000
2A00
6E00
6C00
5B00
5B00
4B00
4B00
3B00
2B00
1600
ENDCHAR
STARTCHAR cent
ENCODING 162
SWIDTH 394 0
DWIDTH 9 0
BBX 9 19 0 -2
BITMAP
0004800000
0005C00000
0003E00000
004EF91000
01E9EDC100
07E1D4E500
0CA0C12100
0E60B20000
2F20A20000
3F00930000
5D00830000
6C00840570
5C00840C70
2E00742F40
0D40859D00
07D49BE300
009EFB2000
0000A80000
0000640000
ENDCHAR
STARTCHAR sterling
ENCODING 163
SWIDTH 539 0
DWIDTH 13 0
BBX 13 17 0 -1
BITMAP
00000017CEA100
000002DC64C600
00001D90001500
00009B00000000
0002F200000000
0007B135200000
59BEFFC7100000
6BAF7100000000
002F2000000000
004E0000000000
006D0000000000
007C0000000000
008C0000000000
008B017CCB7100
007C5ED979FF30
004FC500004400
00040000000000
ENDCHAR
STARTCHAR currency
ENCODING 164
SWIDTH 500 0
DWIDTH 12 0
BBX 11 14 0 2
BITMAP
000000003910
00150000AE00
004F4794F800
001FFFEFE100
000AE31D8000
000C60089000
000E3006A000
000E4006B000
000B5009B000
000C802F9000
007FE6DF5000
03F8AFEE8000
0CD00316D000
1E4000005000
ENDCHAR
STARTCHAR yen
ENCODING 165
SWIDTH 478 0
DWIDTH 11 0
BBX 10 20 1 0
BITMAP
0000000140
0850000CF2
09F1004FB0
03F800BF20
00CE13F800
006F89D100
001EFF6000
0008FE1000
0001EB0000
0000A80000
0000A82450
27ABEFFFD1
2BCCEC7400
0000B82100
58ACFFEF50
5764D80000
0000C80000
0000D70000
0000D70000
0000940000
ENDCHAR
STARTCHAR brokenbar
ENCODING 166
SWIDTH 137 0
DWIDTH 3 0
BBX 3 21 0 0
BITMAP
2400
6C00
4D00
2E00
1F00
0F10
0D20
0C30
0620
0000
0A60
0970
0970
0880
0880
0980
0990
0A90
0B90
0D90
0540
ENDCHAR
STARTCHAR section
ENCODING 167
SWIDTH 366 0
DWIDTH 9 0
BBX 9 19 0 -1
BITMAP
00038BB000
008E777000
07E2000000
2F60000000
7D00000000
9900036200
7D89DFFD10
2DFD527F40
06E2007E10
1E6003F500
5E003E7000
6D06ECA600
3FEFFDEF40
07A7200C70
0000006E10
000007F500
0001BF6000
004EE50000
0037100000
ENDCHAR
STARTCHAR dieresis
ENCODING 168
SWIDTH 306 0
DWIDTH 7 0
BBX 6 2 1 16
BITMAP
4D23D4
380291
ENDCHAR
STARTCHAR copyright
ENCODING 169
SWIDTH 485 0
DWIDTH 12 0
BBX 12 17 0 0
BITMAP
000000210000
00004CFFB100
0005FB44CC10
003F80001E70
00BA067109D0
03F2ACE806F2
0993F26A04F4
0E47C00003F4
2E0A900003F3
5C0B80003BF1
7A0A8001EFC0
9906D13CEF60
9900AFFABD00
7B000216F400
3F30007F7000
0BE9ADE60000
02CFD9200000
ENDCHAR
STARTCHAR ordfeminine
ENCODING 170
SWIDTH 227 0
DWIDTH 5 0
BBX 5 7 0 3
BITMAP
000200
01BC60
0A5860
4A1D80
A295A0
B780A0
980070
ENDCHAR
STARTCHAR guillemotleft
ENCODING 171
SWIDTH 652 0
DWIDTH 16 0
BBX 13 13 1 3
BITMAP
00000001100060
0000001B8009E0
000002CD11BF40
00004ED22DE400
0006FC14EC2000
008F706F800000
1BD309E4000000
BD105F60000000
7F810AF8000000
05ED507FD40000
002AFB32BFB400
00004DFC15DF80
0000008A001710
ENDCHAR
STARTCHAR logicalnot
ENCODING 172
SWIDTH 539 0
DWIDTH 13 0
BBX 12 7 1 3
BITMAP
012345677850
5EDDDCCCBCB0
0000000004C0
0000000004D0
0000000003E0
0000000003F0
0000000002C1
ENDCHAR
STARTCHAR uni00AD
ENCODING 173
SWIDTH 399 0
DWIDTH 10 0
BBX 9 4 0 4
BITMAP
0000005AB0
00028EFD80
38CFC72000
5861000000
ENDCHAR
STARTCHAR registered
ENCODING 174
SWIDTH 382 0
DWIDTH 9 0
BBX 12 16 0 0
BITMAP
00003ADA3000
0005FEDFE400
003B3001AD10
00C300000D70
04D887CB56C0
0998D512E3F1
0E48803C71F4
2F199AE501F5
5D09FC1003F4
7B099CC306F1
9909507EABC0
99095001AF60
7C021000CD00
3F40001BE200
0BEA79ED2000
02CFEB600000
ENDCHAR
STARTCHAR macron
ENCODING 175
SWIDTH 399 0
DWIDTH 10 0
BBX 9 2 0 16
BITMAP
013579BCB0
8EDCB98760
ENDCHAR
STARTCHAR degree
ENCODING 176
SWIDTH 201 0
DWIDTH 5 0
BBX 5 4 0 9
BITMAP
0AEB10
5B0A40
4B1B30
09B700
ENDCHAR
STARTCHAR plusminus
ENCODING 177
SWIDTH 466 0
DWIDTH 11 0
BBX 10 13 0 1
BITMAP
0000210000
0000C30000
0000C30000
0000C30000
0000C30000
0000C68BC1
0125EE9520
7FDAF80000
1200D80000
0000A80000
00008A6880
07BDFECBA0
0342000000
ENDCHAR
STARTCHAR twosuperior
ENCODING 178
SWIDTH 318 0
DWIDTH 8 0
BBX 7 8 0 3
BITMAP
007A1000
1B465000
52055000
00073000
000B0000
00480000
00B47970
03A62000
ENDCHAR
STARTCHAR threesuperior
ENCODING 179
SWIDTH 280 0
DWIDTH 7 0
BBX 7 10 0 4
BITMAP
00151000
2A987000
62063000
00490000
03E98600
08500730
00000920
00005800
00089000
00670000
ENDCHAR
STARTCHAR acute
ENCODING 180
SWIDTH 155 0
DWIDTH 4 0
BBX 4 4 0 14
BITMAP
0031
05F3
3FA0
6900
ENDCHAR
STARTCHAR mu
ENCODING 181
SWIDTH 387 0
DWIDTH 9 0
BBX 9 16 0 -3
BITMAP
2C00006800
3F00008C00
4F10009D00
4F20009E00
4F2000AE00
4F3000BE00
4F4000EE00
4F5006FF00
4F600DFF00
5F909FAF10
5FEAF73F30
5CBB400200
5B00000000
5A00000000
5900000000
5800000000
ENDCHAR
STARTCHAR paragraph
ENCODING 182
SWIDTH 447 0
DWIDTH 11 0
BBX 10 16 0 0
BITMAP
0000124430
008EFFFFF3
0BFFFFFBD4
3FFFFFF2A4
6FFFFFF3A5
6FFFD6F4A5
057511F4A6
000000F5A7
000000E6A7
000000D7A8
000000C898
000000B989
000000A97A
0000009A6A
0000009A4A
0000005516
ENDCHAR
STARTCHAR periodcentered
ENCODING 183
SWIDTH 128 0
DWIDTH 3 0
BBX 3 2 0 5
BITMAP
4C20
4A10
ENDCHAR
STARTCHAR cedilla
ENCODING 184
SWIDTH 322 0
DWIDTH 8 0
BBX 6 10 1 -8
BITMAP
010000
390000
7B0000
7D3000
4FF910
049EE4
0002EC
0048FE
5FFFB4
132000
ENDCHAR
STARTCHAR onesuperior
ENCODING 185
SWIDTH 112 0
DWIDTH 3 0
BBX 2 9 0 4
BITMAP
12
39
3A
4A
4B
4B
3C
2C
0C
ENDCHAR
STARTCHAR ordmasculine
ENCODING 186
SWIDTH 212 0
DWIDTH 5 0
BBX 5 7 0 3
BITMAP
059400
1D5850
5802B0
8703C0
9706A0
871D30
4DA400
ENDCHAR
STARTCHAR guillemotright
ENCODING 187
SWIDTH 625 0
DWIDTH 15 0
BBX 13 14 1 2
BITMAP
86005D50000000
9FC42BFB300000
03CFA24CF91000
0005CF815DE700
000006DD207E90
0000000E5009A0
0000005E104E30
000005E405E600
00008F508F6000
002BF52CF60000
03EE43DE400000
4EC22EC2000000
C8006800000000
10000000000000
ENDCHAR
STARTCHAR onequarter
ENCODING 188
SWIDTH 678 0
DWIDTH 16 0
BBX 16 19 0 -2
BITMAP
000000A400000000
000002F100000000
000006B000000000
00000B6000000000
14001F2000073000
39005C00006F6000
3A00970002EF6000
3A00E3001CAB6000
4A04D0009B0B6000
4B089007C00B6000
3B0D405D100B9672
3C2E06F97AAEA540
1D7A2974200B6000
0CB50000000B6000
01E10000000B6000
06B00000000B6000
0A600000000B4000
0E10000000000000
1B00000000000000
ENDCHAR
STARTCHAR onehalf
ENCODING 189
SWIDTH 693 0
DWIDTH 17 0
BBX 14 19 1 -2
BITMAP
00000086000000
000000E3000000
000004E0000000
81000890000000
A1000D40000000
A1002E00000000
A2007A00100000
A200B53BF80000
A301F5D42E0000
A306DC200D0000
A30A61000D0000
840E20004A0000
644C0000950000
00980001D00000
00D30008701593
03D0002E8BB820
08900079410000
0C400000000000
0B000000000000
ENDCHAR
STARTCHAR threequarters
ENCODING 190
SWIDTH 868 0
DWIDTH 21 0
BBX 16 19 1 -2
BITMAP
0000000000058000
00013000000B6000
05BCE700001F4300
CA206700005CC700
4001C10000ACF700
001C500000EFD700
00BD985004FC7700
0AF8228A09F36700
0520000E0FC06700
0000003B4F106965
000001C3FF5AEC73
00003D57FE526700
0007E402E1006700
002C2006B0006700
0000000A60006700
0000001E10006700
0000005C00006500
0000009700000000
0000009200000000
ENDCHAR
STARTCHAR questiondown
ENCODING 191
SWIDTH 541 0
DWIDTH 13 0
BBX 11 20 2 -1
BITMAP
00003E200000
000005100000
000000000000
000000000000
000000000000
000000000000
000000000000
000244100000
004DBEE30000
000002F80000
000003F50000
00004EB00000
0005FB100000
006F80000000
04E600000000
1E5000000000
990000000000
E40000028B30
E92114AFE810
3BEFEB840000
ENDCHAR
STARTCHAR Agrave
ENCODING 192
SWIDTH 390 0
DWIDTH 9 0
BBX 11 24 1 -2
BITMAP
018000000000
01F700000000
007F20000000
000830000000
000000000000
03E100000000
06F800000000
07FE00000000
09CD50000000
0B96A0000000
0D71E1000000
0E60B6000000
1F506B000000
2F302F200000
4F200D95ADA0
5F100CFC6350
7F03AFE00000
8FEC75F30000
9E4000C70000
B800007B0000
C500003E0000
E400000E3000
610000085000
000000010000
ENDCHAR
STARTCHAR Aacute
ENCODING 193
SWIDTH 390 0
DWIDTH 9 0
BBX 12 24 0 -1
BITMAP
000310000000
004E50000000
02EB00000000
04A100000000
000000000000
009900000000
00BF30000000
00DF90000000
00FAE0000000
01F3B5000000
03F26A000000
04F01E100000
06E00C600000
07D007B00000
09B004F57BE5
0BB002FEA543
0CA05DF90000
0EFEA59D0000
0FB2002F1000
1F20000D5000
3F0000089000
4E000004D000
25000000C000
000000001000
ENDCHAR
STARTCHAR Acircumflex
ENCODING 194
SWIDTH 390 0
DWIDTH 9 0
BBX 13 26 -1 -1
BITMAP
00032000000000
001ED100000000
008B9B00000000
01E30A90000000
099001D7000000
2E10002E700000
97000004300000
00099000000000
000BF300000000
000DF900000000
000FAE00000000
001F3B50000000
003F26A0000000
004F01E1000000
006E00C6000000
007D007B000000
009B004F57BE50
00BB002FEA5430
00CA05DF900000
00EFEA59D00000
00FB2002F10000
01F20000D50000
03F00000890000
04E000004D0000
025000000C0000
00000000010000
ENDCHAR
STARTCHAR Atilde
ENCODING 195
SWIDTH 390 0
DWIDTH 9 0
BBX 13 26 -1 -1
BITMAP
00020000000000
05EFE400870000
1F70BC05F80000
3D103EBEB00000
000004A7000000
00000000000000
00000000000000
00099000000000
000BF300000000
000DF900000000
000FAE00000000
001F3B50000000
003F26A0000000
004F01E1000000
006E00C6000000
007D007B000000
009B004F57BE50
00BB002FEA5430
00CA05DF900000
00EFEA59D00000
00FB2002F10000
01F20000D50000
03F00000890000
04E000004D0000
025000000C0000
00000000010000
ENDCHAR
STARTCHAR Adieresis
ENCODING 196
SWIDTH 390 0
DWIDTH 9 0
BBX 12 22 0 -1
BITMAP
07D06D100000
056057000000
000000000000
009900000000
00BF30000000
00DF90000000
00FAE0000000
01F3B5000000
03F26A000000
04F01E100000
06E00C600000
07D007B00000
09B004F57BE5
0BB002FEA543
0CA05DF90000
0EFEA59D0000
0FB2002F1000
1F20000D5000
3F0000089000
4E000004D000
25000000C000
000000001000
ENDCHAR
STARTCHAR Aring
ENCODING 197
SWIDTH 390 0
DWIDTH 9 0
BBX 12 23 0 -1
BITMAP
002300000000
4DEEE3000000
DA01C9000000
CA01D9000000
3BEF91000000
00BF30000000
00DF90000000
00FAE0000000
01F3B5000000
03F26A000000
04F01E100000
06E00C600000
07D007B00000
09B004F57BE5
0BB002FEA543
0CA05DF90000
0EFEA59D0000
0FB2002F1000
1F20000D5000
3F0000089000
4E000004D000
25000000C000
000000001000
ENDCHAR
STARTCHAR AE
ENCODING 198
SWIDTH 708 0
DWIDTH 17 0
BBX 17 18 0 0
BITMAP
009900010000047200
00BF306E1039EC4000
00DF904F7BFC400000
00FAE02FFC50000000
01F3B50F7000000000
03F26A0D5000000000
04F01E1C6000023000
06E00C6B70006B2000
07D007BA706D800000
09B004FCCDB2000000
0BB002FFF500000000
0CA05DFFE000000010
0EFEA59FE000004D80
0FB2002FE00019E600
1F20000DE003DB2000
3F000009E3AE600000
4E000009FFA2000000
250000036300000000
ENDCHAR
STARTCHAR Ccedilla
ENCODING 199
SWIDTH 487 0
DWIDTH 12 0
BBX 12 26 0 -8
BITMAP
000004630000
00009ECF3000
0006E2078000
001E50000000
007C00000000
00C700000000
02F100000000
06C000000000
0A8000000000
0D4000000000
1F2000000000
3E00000004E1
5C0000000BC0
6C0000006F30
5D000003F600
2F20003E7000
0AC448E60000
01BFFA200000
0005C0000000
0006C0000000
0005FC300000
0000AEFA1000
0000017FB000
0000001DF000
00028CFFB000
000299730000
ENDCHAR
STARTCHAR Egrave
ENCODING 200
SWIDTH 474 0
DWIDTH 11 0
BBX 11 22 0 0
BITMAP
000810000000
000CB0000000
0003F5000000
000055000000
000000025300
2E4016CE8100
1E97EE810000
0DFE81000000
0BB100000000
099000000000
08A000003000
07B0002B9000
06C019E70000
05D7E9100000
05FC20000000
05F300000000
05F3000019D0
04F30005EA10
05F3019E5000
05F46EA10000
05FFD4000000
02A600000000
ENDCHAR
STARTCHAR Eacute
ENCODING 201
SWIDTH 474 0
DWIDTH 11 0
BBX 11 22 0 0
BITMAP
000000400000
000008E00000
00006F600000
000096000000
000000025300
2E4016CE8100
1E97EE810000
0DFE81000000
0BB100000000
099000000000
08A000003000
07B0002B9000
06C019E70000
05D7E9100000
05FC20000000
05F300000000
05F3000019D0
04F30005EA10
05F3019E5000
05F46EA10000
05FFD4000000
02A600000000
ENDCHAR
STARTCHAR Ecircumflex
ENCODING 202
SWIDTH 474 0
DWIDTH 11 0
BBX 11 26 0 0
BITMAP
000004000000
00007F600000
0001E6D40000
0008A03E3000
002E2006D200
009800009E10
01D100000700
000000000000
000000025300
2E4016CE8100
1E97EE810000
0DFE81000000
0BB100000000
099000000000
08A000003000
07B0002B9000
06C019E70000
05D7E9100000
05FC20000000
05F300000000
05F3000019D0
04F30005EA10
05F3019E5000
05F46EA10000
05FFD4000000
02A600000000
ENDCHAR
STARTCHAR Edieresis
ENCODING 203
SWIDTH 474 0
DWIDTH 11 0
BBX 11 21 0 0
BITMAP
001C70B90000
001930840000
000000000000
000000025300
2E4016CE8100
1E97EE810000
0DFE81000000
0BB100000000
099000000000
08A000003000
07B0002B9000
06C019E70000
05D7E9100000
05FC20000000
05F300000000
05F3000019D0
04F30005EA10
05F3019E5000
05F46EA10000
05FFD4000000
02A600000000
ENDCHAR
STARTCHAR Igrave
ENCODING 204
SWIDTH 153 0
DWIDTH 4 0
BBX 3 23 0 0
BITMAP
5300
7E20
1DA0
0290
0000
0960
0990
08A0
07B0
06C0
06C0
05D0
05D0
05E0
04E0
04E0
04E0
04F0
04F0
03F0
03F0
02F0
01C0
ENDCHAR
STARTCHAR Iacute
ENCODING 205
SWIDTH 153 0
DWIDTH 4 0
BBX 4 23 0 0
BITMAP
0013
01D9
0CD2
1B20
0000
0960
0990
08A0
07B0
06C0
06C0
05D0
05D0
05E0
04E0
04E0
04E0
04F0
04F0
03F0
03F0
02F0
01C0
ENDCHAR
STARTCHAR Icircumflex
ENCODING 206
SWIDTH 153 0
DWIDTH 4 0
BBX 9 25 -2 0
BITMAP
0003100000
002FC00000
009AAA0000
03E10C8000
0A7002E600
3D00004E60
B500000520
0009600000
0009900000
0008A00000
0007B00000
0006C00000
0006C00000
0005D00000
0005D00000
0005E00000
0004E00000
0004E00000
0004E00000
0004F00000
0004F00000
0003F00000
0003F00000
0002F00000
0001C00000
ENDCHAR
STARTCHAR Idieresis
ENCODING 207
SWIDTH 153 0
DWIDTH 4 0
BBX 6 21 -1 0
BITMAP
2D51C7
192192
000000
009600
009900
008A00
007B00
006C00
006C00
005D00
005D00
005E00
004E00
004E00
004E00
004F00
004F00
003F00
003F00
002F00
001C00
ENDCHAR
STARTCHAR Eth
ENCODING 208
SWIDTH 554 0
DWIDTH 13 0
BBX 13 18 0 0
BITMAP
00540000000000
009C8765200000
06FFAAACED7100
5EDC000004BD10
11AB0000000A90
009B00000006B0
007C0000000790
006C0000000C40
005C0000004D00
004D000000C600
003E000008D000
002F56405F3000
4ADFFF83F70000
257F613E900000
000E22EB000000
000C3DC1000000
0002BC10000000
0002C100000000
ENDCHAR
STARTCHAR Ntilde
ENCODING 209
SWIDTH 541 0
DWIDTH 13 0
BBX 13 23 0 0
BITMAP
00011000000000
02CFF8005A0000
0CB07F22EC0000
0D300CDDD20000
00000299122000
0000000008C000
0000000005F100
2400000003F300
4F70000001F400
2FF5000000F400
1FFE200000E400
0E9DC00000E500
0C82E80000D500
0B805F4000D500
099008E200C600
07B000BC00C600
06D0001D80D700
04F00003E4D700
02F200006EF800
00F4000009FA00
00E5000000DF10
00D60000008A00
00A50000000000
ENDCHAR
STARTCHAR Ograve
ENCODING 210
SWIDTH 382 0
DWIDTH 9 0
BBX 9 21 0 0
BITMAP
0000081000
00000CB000
000003F500
0000005500
0000020000
0004DFD300
002EC7BE10
00AA001E70
02F3000AA0
08D00008C0
0C900007D0
1F400008D0
4F100009C0
6D00000B90
8B00000E60
9900004F30
9900008E00
7B0001E700
3F200AD100
0BE9CE3000
02CEA20000
ENDCHAR
STARTCHAR Oacute
ENCODING 211
SWIDTH 382 0
DWIDTH 9 0
BBX 9 21 0 0
BITMAP
0000130000
0001CB0000
000AE30000
000B300000
0000020000
0004DFD300
002EC7BE10
00AA001E70
02F3000AA0
08D00008C0
0C900007D0
1F400008D0
4F100009C0
6D00000B90
8B00000E60
9900004F30
9900008E00
7B0001E700
3F200AD100
0BE9CE3000
02CEA20000
ENDCHAR
STARTCHAR Ocircumflex
ENCODING 212
SWIDTH 382 0
DWIDTH 9 0
BBX 9 23 0 0
BITMAP
0002300000
000CE20000
005D7D1000
00D508C000
06B000BA00
1D30001DA0
6900020350
0004DFD300
002EC7BE10
00AA001E70
02F3000AA0
08D00008C0
0C900007D0
1F400008D0
4F100009C0
6D00000B90
8B00000E60
9900004F30
9900008E00
7B0001E700
3F200AD100
0BE9CE3000
02CEA20000
ENDCHAR
STARTCHAR Otilde
ENCODING 213
SWIDTH 382 0
DWIDTH 9 0
BBX 11 22 0 0
BITMAP
000110000000
01BFFA004B10
0AD15F41DE10
0B500BDCE400
000001992000
000002000000
0004DFD30000
002EC7BE1000
00AA001E7000
02F3000AA000
08D00008C000
0C900007D000
1F400008D000
4F100009C000
6D00000B9000
8B00000E6000
9900004F3000
9900008E0000
7B0001E70000
3F200AD10000
0BE9CE300000
02CEA2000000
ENDCHAR
STARTCHAR Odieresis
ENCODING 214
SWIDTH 382 0
DWIDTH 9 0
BBX 9 19 0 0
BITMAP
0004D23D40
0003802910
0000020000
0004DFD300
002EC7BE10
00AA001E70
02F3000AA0
08D00008C0
0C900007D0
1F400008D0
4F100009C0
6D00000B90
8B00000E60
9900004F30
9900008E00
7B0001E700
3F200AD100
0BE9CE3000
02CEA20000
ENDCHAR
STARTCHAR multiply
ENCODING 215
SWIDTH 454 0
DWIDTH 11 0
BBX 8 9 1 3
BITMAP
03000000
0D4001B4
04D10AC1
00AB8E20
001EF300
006EF200
03E37C00
2E500E60
14000790
ENDCHAR
STARTCHAR Oslash
ENCODING 216
SWIDTH 382 0
DWIDTH 9 0
BBX 9 19 0 -2
BITMAP
0000024900
0004DFF800
002EC7FE10
00AA04DE70
02F3088AA0
08D00D48C0
0C902E07D0
1F407908D0
4F10C509C0
6D01E10B90
8B06B00E60
990A604F30
991E108E00
7B5C01E700
3FB70AD100
0BFACE3000
04FEA20000
0880000000
0830000000
ENDCHAR
STARTCHAR Ugrave
ENCODING 217
SWIDTH 450 0
DWIDTH 11 0
BBX 11 22 0 -3
BITMAP
000260000000
0003F5000000
00009E100000
000009100000
030000003A00
4F3000007F10
4F300000AF00
3F300000CF00
3F300000EE00
2F300002FD00
2F300005FC00
1F300008FC00
1F30000CFB00
0F30001FAC00
0F30005E5C00
0D4000B73E00
0A9005E11F00
05FA9E400F20
006B93000E30
000000000C40
000000000B50
000000000720
ENDCHAR
STARTCHAR Uacute
ENCODING 218
SWIDTH 450 0
DWIDTH 11 0
BBX 11 21 0 -3
BITMAP
000000310000
000005F40000
00003FA00000
030059003A00
4F3000007F10
4F300000AF00
3F300000CF00
3F300000EE00
2F300002FD00
2F300005FC00
1F300008FC00
1F30000CFB00
0F30001FAC00
0F30005E5C00
0D4000B73E00
0A9005E11F00
05FA9E400F20
006B93000E30
000000000C40
000000000B50
000000000720
ENDCHAR
STARTCHAR Ucircumflex
ENCODING 219
SWIDTH 450 0
DWIDTH 11 0
BBX 11 26 0 -3
BITMAP
000031000000
0001EC100000
0009A9A00000
002E20B80000
00A8001D6000
03D10003E600
0A5000005300
000000000000
030000003A00
4F3000007F10
4F300000AF00
3F300000CF00
3F300000EE00
2F300002FD00
2F300005FC00
1F300008FC00
1F30000CFB00
0F30001FAC00
0F30005E5C00
0D4000B73E00
0A9005E11F00
05FA9E400F20
006B93000E30
000000000C40
000000000B50
000000000720
ENDCHAR
STARTCHAR Udieresis
ENCODING 220
SWIDTH 450 0
DWIDTH 11 0
BBX 11 21 0 -3
BITMAP
000AA09B0000
000740750000
000000000000
030000003A00
4F3000007F10
4F300000AF00
3F300000CF00
3F300000EE00
2F300002FD00
2F300005FC00
1F300008FC00
1F30000CFB00
0F30001FAC00
0F30005E5C00
0D4000B73E00
0A9005E11F00
05FA9E400F20
006B93000E30
000000000C40
000000000B50
000000000720
ENDCHAR
STARTCHAR Yacute
ENCODING 221
SWIDTH 483 0
DWIDTH 12 0
BBX 12 23 0 0
BITMAP
000000040000
0000008F0000
000006F60000
000009600000
000000000070
0000000001F1
0000000005B0
200000000A70
890000000E30
1E5000005D00
07E30000A900
00BD1001F400
001DB006E000
0002EB0B9000
00004EDF4000
000004FD0000
000000F80000
000003F30000
000007D00000
00000C800000
00002F300000
00005D000000
000068000000
ENDCHAR
STARTCHAR Thorn
ENCODING 222
SWIDTH 398 0
DWIDTH 10 0
BBX 10 20 0 0
BITMAP
0430000000
0C80000000
0D60000000
0E40000000
0E3037A700
0F47FEDF70
1FBE6009D0
1FF50003F1
2FA00003F1
3F400006E0
3F20001D90
4F2000AD10
4F202BC100
4F49E91000
4FFC300000
4F60000000
4F20000000
4F20000000
2F30000000
0710000000
ENDCHAR
STARTCHAR germandbls
ENCODING 223
SWIDTH 537 0
DWIDTH 13 0
BBX 13 18 0 0
BITMAP
00000045300000
11018EEDF40000
6C5EA400E40000
2FF50006D00000
0E80002E400000
0C7001C6000000
0A800B858AA700
08A0BFD9537F40
05EBFB20000E20
03FF9000006800
01FC000004D100
00E500003E4000
00C50003E70000
0097003E900000
007A02EB000000
005C0CB1000000
003D1600000000
00090000000000
ENDCHAR
STARTCHAR agrave
ENCODING 224
SWIDTH 366 0
DWIDTH 9 0
BBX 9 18 0 0
BITMAP
0027000000
003F500000
0009E10000
0000910000
0000000000
00006DD200
0006FDF600
002FA0F600
00BD12F600
03F606F600
0AD00BF800
1F604FCA00
6E10DA5C00
A907F23E00
E42E801F10
E6CD100F20
AFE3000D30
2920000710
ENDCHAR
STARTCHAR aacute
ENCODING 225
SWIDTH 366 0
DWIDTH 9 0
BBX 9 18 0 0
BITMAP
0000031000
00005F4000
0003EA0000
0005900000
0000000000
00006DD200
0006FDF600
002FA0F600
00BD12F600
03F606F600
0AD00BF800
1F604FCA00
6E10DA5C00
A907F23E00
E42E801F10
E6CD100F20
AFE3000D30
2920000710
ENDCHAR
STARTCHAR acircumflex
ENCODING 226
SWIDTH 366 0
DWIDTH 9 0
BBX 9 23 0 0
BITMAP
0003200000
001ED10000
008B9B0000
02E20B9000
099001D700
2E10003E70
9600000430
0000000000
0000000000
0000000000
00006DD200
0006FDF600
002FA0F600
00BD12F600
03F606F600
0AD00BF800
1F604FCA00
6E10DA5C00
A907F23E00
E42E801F10
E6CD100F20
AFE3000D30
2920000710
ENDCHAR
STARTCHAR atilde
ENCODING 227
SWIDTH 366 0
DWIDTH 9 0
BBX 10 19 0 0
BITMAP
0002000000
06EFE30096
3F51DA07F6
4C004FBF90
000005A600
0000000000
00006DD200
0006FDF600
002FA0F600
00BD12F600
03F606F600
0AD00BF800
1F604FCA00
6E10DA5C00
A907F23E00
E42E801F10
E6CD100F20
AFE3000D30
2920000710
ENDCHAR
STARTCHAR adieresis
ENCODING 228
SWIDTH 366 0
DWIDTH 9 0
BBX 9 18 0 0
BITMAP
00AA09B000
0074075000
0000000000
0000000000
0000000000
00006DD200
0006FDF600
002FA0F600
00BD12F600
03F606F600
0AD00BF800
1F604FCA00
6E10DA5C00
A907F23E00
E42E801F10
E6CD100F20
AFE3000D30
2920000710
ENDCHAR
STARTCHAR aring
ENCODING 229
SWIDTH 366 0
DWIDTH 9 0
BBX 9 17 0 0
BITMAP
0001341000
005EDEE300
00E800C800
00BA12D800
003BFFF300
0006FDF600
002FA0F600
00AD12F600
03F606F600
0AD00BF800
1F604FCA00
6E10DA5C00
A907F23E00
E42E801F10
E6CD100F20
AFE3000D30
2920000710
ENDCHAR
STARTCHAR ae
ENCODING 230
SWIDTH 705 0
DWIDTH 17 0
BBX 17 14 0 0
BITMAP
000000000036400000
00006DD209FEFB0000
0006FDF65F803F7000
002FA0F6DB009F5000
00BD12FAF34CC30000
03F606FFFDE7000000
0AD00BFFF910000000
1F604FFF9000001D60
6E10DA7F7000009E20
A907F23F600005F600
E42E801F60004F7000
E6CD100FB017E60000
AFE3000DEFFB300000
292000072320000000
ENDCHAR
STARTCHAR ccedilla
ENCODING 231
SWIDTH 390 0
DWIDTH 9 0
BBX 9 23 0 -8
BITMAP
0000200000
004EF70000
01EA8C0000
07E14F0000
0BA00D0000
0E60010000
2F30000000
3F00000000
5D00000000
6C00000570
5C00000C80
2E00002F50
0D40009D00
07D439E300
00AFEA2000
006C000000
007D200000
004FF81000
0005AFE300
000003ED00
000027FF00
004EFFC500
0014310000
ENDCHAR
STARTCHAR egrave
ENCODING 232
SWIDTH 461 0
DWIDTH 11 0
BBX 12 18 -1 0
BITMAP
000018000000
00001E700000
000006F20000
000000830000
000000000000
000007A82000
0000BFADE200
0007F501F800
000E901BD300
005F47E91000
00CFFC300000
07FE50000021
1FF9000002E7
00A700000BD1
00A700008F40
00870007E400
005D44AD3000
0009FE810000
ENDCHAR
STARTCHAR eacute
ENCODING 233
SWIDTH 461 0
DWIDTH 11 0
BBX 12 18 -1 0
BITMAP
000000021000
0000003E6000
000002EC1000
000004A10000
000000000000
000007A82000
0000BFADE200
0007F501F800
000E901BD300
005F47E91000
00CFFC300000
07FE50000021
1FF9000002E7
00A700000BD1
00A700008F40
00870007E400
005D44AD3000
0009FE810000
ENDCHAR
STARTCHAR ecircumflex
ENCODING 234
SWIDTH 461 0
DWIDTH 11 0
BBX 12 23 -1 0
BITMAP
000002200000
00000DD20000
00006C8C1000
0001E409B000
0007A000C900
001E20002E90
007800000340
000000000000
000000000000
000000000000
000007A82000
0000BFADE200
0007F501F800
000E901BD300
005F47E91000
00CFFC300000
07FE50000021
1FF9000002E7
00A700000BD1
00A700008F40
00870007E400
005D44AD3000
0009FE810000
ENDCHAR
STARTCHAR edieresis
ENCODING 235
SWIDTH 461 0
DWIDTH 11 0
BBX 12 18 -1 0
BITMAP
00008C07D000
000066057000
000000000000
000000000000
000000000000
000007A82000
0000BFADE200
0007F501F800
000E901BD300
005F47E91000
00CFFC300000
07FE50000021
1FF9000002E7
00A700000BD1
00A700008F40
00870007E400
005D44AD3000
0009FE810000
ENDCHAR
STARTCHAR igrave
ENCODING 236
SWIDTH 132 0
DWIDTH 3 0
BBX 4 21 -1 -1
BITMAP
0500
2F50
09E1
00B3
0000
0000
0091
01F3
02F3
03F3
03F2
03F2
03F2
03F2
02F2
02F2
01F2
01F2
01F2
00F2
0020
ENDCHAR
STARTCHAR iacute
ENCODING 237
SWIDTH 132 0
DWIDTH 3 0
BBX 4 22 0 -1
BITMAP
0010
01C7
0CE2
4D20
0000
0000
0000
0910
1F30
2F30
3F30
3F20
3F20
3F20
3F20
2F20
2F20
1F20
1F20
1F20
0F20
0200
ENDCHAR
STARTCHAR icircumflex
ENCODING 238
SWIDTH 132 0
DWIDTH 3 0
BBX 9 24 -3 -1
BITMAP
0002300000
000DE20000
006D7D1000
01D409B000
07B000B900
1E30001D90
7900000340
0000000000
0000000000
0000910000
0001F30000
0002F30000
0003F30000
0003F20000
0003F20000
0003F20000
0003F20000
0002F20000
0002F20000
0001F20000
0001F20000
0001F20000
0000F20000
0000200000
ENDCHAR
STARTCHAR idieresis
ENCODING 239
SWIDTH 132 0
DWIDTH 3 0
BBX 6 19 -1 -1
BITMAP
8C06D1
660570
000000
000000
009100
01F300
02F300
03F300
03F200
03F200
03F200
03F200
02F200
02F200
01F200
01F200
01F200
00F200
002000
ENDCHAR
STARTCHAR eth
ENCODING 240
SWIDTH 481 0
DWIDTH 12 0
BBX 11 16 1 -1
BITMAP
000670000000
0006F2000000
0000C9000000
00004F200100
00368ECBEE30
00CDBAF72000
000000D70000
0054007C0000
0BFFC33F0000
3F87DE3F1000
6D001BDF0000
5B0002FC0000
1E1005F60000
09B46EA00000
01BFE7000000
000200000000
ENDCHAR
STARTCHAR ntilde
ENCODING 241
SWIDTH 483 0
DWIDTH 12 0
BBX 11 21 0 0
BITMAP
000020000000
005EFE400870
02F70CB06F70
03D003FBFA00
0000004A7000
000000000000
000000000000
3900005DB100
4E0007FEF800
3F103FA05D00
2F30AE100F20
1F50E9000F40
0F73F3000E70
0E87D0000D80
0DAA80000C90
0CCE40000BA0
0BFE00000AA0
0AFB000009A0
08F8000008A0
07F5000007B0
05D200000230
ENDCHAR
STARTCHAR ograve
ENCODING 242
SWIDTH 266 0
DWIDTH 6 0
BBX 6 18 0 0
BITMAP
045000
05E300
00BC00
001900
001200
04FF50
09D8D1
0D4078
1F004C
4D003E
6C003F
8C004F
8C006D
8C009B
6C00D6
6D06F1
4F9E70
0CD600
ENDCHAR
STARTCHAR oacute
ENCODING 243
SWIDTH 266 0
DWIDTH 6 0
BBX 6 18 0 0
BITMAP
000040
0007F1
005F70
008700
001200
04FF50
09D8D1
0D4078
1F004C
4D003E
6C003F
8C004F
8C006D
8C009B
6C00D6
6D06F1
4F9E70
0CD600
ENDCHAR
STARTCHAR ocircumflex
ENCODING 244
SWIDTH 266 0
DWIDTH 6 0
BBX 9 23 -1 0
BITMAP
0004100000
003FA00000
00B9B80000
04D11D6000
0C6003E400
5C00005E40
C300000620
0000000000
0000000000
0001200000
004FF50000
009D8D1000
00D4078000
01F004C000
04D003E000
06C003F000
08C004F000
08C006D000
08C009B000
06C00D6000
06D06F1000
04F9E70000
00CD600000
ENDCHAR
STARTCHAR otilde
ENCODING 245
SWIDTH 266 0
DWIDTH 6 0
BBX 10 19 -1 0
BITMAP
0012000000
09FFC102B3
7E23F60BF2
98008EBF50
000008A300
0001200000
004FF50000
009D8D1000
00D4078000
01F004C000
04D003E000
06C003F000
08C004F000
08C006D000
08C009B000
06C00D6000
06D06F1000
04F9E70000
00CD600000
ENDCHAR
STARTCHAR odieresis
ENCODING 246
SWIDTH 266 0
DWIDTH 6 0
BBX 6 18 0 0
BITMAP
1C80B9
083084
000000
000000
001200
04FF50
09D8D1
0D4078
1F004C
4D003E
6C003F
8C004F
8C006D
8C009B
6C00D6
6D06F1
4F9E70
0CD600
ENDCHAR
STARTCHAR divide
ENCODING 247
SWIDTH 345 0
DWIDTH 8 0
BBX 8 9 0 2
BITMAP
00021000
000B6000
00021000
14579BC7
4CBA9874
00000000
00011000
0007A000
00022000
ENDCHAR
STARTCHAR oslash
ENCODING 248
SWIDTH 266 0
DWIDTH 6 0
BBX 7 16 0 -2
BITMAP
00120C40
04FF8E00
09D8E900
0D40D800
1F04FC00
4D09AE00
6C0E5F00
8C5B4F00
8CA66D00
8CE19B00
6FA0D600
6F56F100
5F9E7000
7FD60000
D4000000
C0000000
ENDCHAR
STARTCHAR ugrave
ENCODING 249
SWIDTH 387 0
DWIDTH 9 0
BBX 9 19 0 -1
BITMAP
0008000000
000E900000
0005F40000
0000640000
0000000000
0000000000
1900004500
3F00008C00
2F10008B00
2F10009B00
2F20009B00
2F3000AB00
1F4000DB00
0F5004FB00
0D600CFD00
0A806FBE00
06D6FA2F20
01DF900E60
0002000430
ENDCHAR
STARTCHAR uacute
ENCODING 250
SWIDTH 387 0
DWIDTH 9 0
BBX 9 19 0 -1
BITMAP
0000022000
00002D7000
0001DD1000
0002B10000
0000000000
0000000000
1900004500
3F00008C00
2F10008B00
2F10009B00
2F20009B00
2F3000AB00
1F4000DB00
0F5004FB00
0D600CFD00
0A806FBE00
06D6FA2F20
01DF900E60
0002000430
ENDCHAR
STARTCHAR ucircumflex
ENCODING 251
SWIDTH 387 0
DWIDTH 9 0
BBX 9 24 0 -1
BITMAP
0001300000
000BE30000
004E6D2000
00C607C100
05C000AB00
0D40001CB0
5A00000250
0000000000
0000000000
0000000000
0000000000
1900004500
3F00008C00
2F10008B00
2F10009B00
2F20009B00
2F3000AB00
1F4000DB00
0F5004FB00
0D600CFD00
0A806FBE00
06D6FA2F20
01DF900E60
0002000430
ENDCHAR
STARTCHAR udieresis
ENCODING 252
SWIDTH 387 0
DWIDTH 9 0
BBX 9 19 0 -1
BITMAP
007D06D100
0057048000
0000000000
0000000000
0000000000
0000000000
1900004500
3F00008C00
2F10008B00
2F10009B00
2F20009B00
2F3000AB00
1F4000DB00
0F5004FB00
0D600CFD00
0A806FBE00
06D6FA2F20
01DF900E60
0002000430
ENDCHAR
STARTCHAR yacute
ENCODING 253
SWIDTH 363 0
DWIDTH 9 0
BBX 9 27 0 -9
BITMAP
0000031000
00005F3000
0003FA0000
0006900000
0000000000
0000000610
0000000D30
6B00000E30
3F70000F30
09E1001F30
01E9002F30
005F302F20
000BC03F20
0002F84F10
00007FBF10
00000DFF00
000004FE00
0000009D00
0000006C00
0000007B00
0000008A00
000000A900
000000B800
000000C700
000000D500
000000E400
000000F300
ENDCHAR
STARTCHAR thorn
ENCODING 254
SWIDTH 439 0
DWIDTH 11 0
BBX 10 17 0 -1
BITMAP
2800000000
4F10048850
4F03CC87BB
3F8E40003F
3FD200008B
2F500002E2
1F10002D60
0F1004D700
0E308F6000
0D8CE50000
0DFD300000
0D91000000
0E30000000
0E20000000
0F20000000
1F10000000
1800000000
ENDCHAR
STARTCHAR ydieresis
ENCODING 255
SWIDTH 363 0
DWIDTH 9 0
BBX 9 27 0 -9
BITMAP
00B909B000
0084075000
0000000000
0000000000
0000000000
0000000610
0000000D30
6B00000E30
3F70000F30
09E1001F30
01E9002F30
005F302F20
000BC03F20
0002F84F10
00007FBF10
00000DFF00
000004FE00
0000009D00
0000006C00
0000007B00
0000008A00
000000A900
000000B800
000000C700
000000D500
000000E400
000000F300
ENDCHAR
STARTCHAR Amacron
ENCODING 256
SWIDTH 390 0
DWIDTH 9 0
BBX 12 22 0 -1
BITMAP
024579BC8000
CECBA9874000
000000000000
009900000000
00BF30000000
00DF90000000
00FAE0000000
01F3B5000000
03F26A000000
04F01E100000
06E00C600000
07D007B00000
09B004F57BE5
0BB002FEA543
0CA05DF90000
0EFEA59D0000
0FB2002F1000
1F20000D5000
3F0000089000
4E000004D000
25000000C000
000000001000
ENDCHAR
STARTCHAR amacron
ENCODING 257
SWIDTH 366 0
DWIDTH 9 0
BBX 9 18 0 0
BITMAP
023579BC90
BEDBA98750
0000000000
0000000000
0000000000
00006DD200
0006FDF600
002FA0F600
00BD12F600
03F606F600
0AD00BF800
1F604FCA00
6E10DA5C00
A907F23E00
E42E801F10
E6CD100F20
AFE3000D30
2920000710
ENDCHAR
STARTCHAR Abreve
ENCODING 258
SWIDTH 390 0
DWIDTH 9 0
BBX 12 24 0 -1
BITMAP
042001910000
08C10AE00000
00BEEE400000
000793000000
000000000000
009900000000
00BF30000000
00DF90000000
00FAE0000000
01F3B5000000
03F26A000000
04F01E100000
06E00C600000
07D007B00000
09B004F57BE5
0BB002FEA543
0CA05DF90000
0EFEA59D0000
0FB2002F1000
1F20000D5000
3F0000089000
4E000004D000
25000000C000
000000001000
ENDCHAR
STARTCHAR abreve
ENCODING 259
SWIDTH 366 0
DWIDTH 9 0
BBX 9 18 0 0
BITMAP
0150005600
01E504E700
004FDFB000
0003960000
0000000000
00006DD200
0006FDF600
002FA0F600
00BD12F600
03F606F600
0AD00BF800
1F604FCA00
6E10DA5C00
A907F23E00
E42E801F10
E6CD100F20
AFE3000D30
2920000710
ENDCHAR
STARTCHAR Aogonek
ENCODING 260
SWIDTH 390 0
DWIDTH 9 0
BBX 12 24 0 -6
BITMAP
009900000000
00BF30000000
00DF90000000
00FAE0000000
01F3B5000000
03F26A000000
04F01E100000
06E00C600000
07D007B00000
09B004F57BE5
0BB002FEA543
0CA05DF90000
0EFEA59D0000
0FB2002F1000
1F20000D5000
3F0000089000
4E000004D000
25000002E000
0000002E9000
000000AC0000
000000F50000
000001F30021
000000BC8CF6
0000002BDB60
ENDCHAR
STARTCHAR aogonek
ENCODING 261
SWIDTH 366 0
DWIDTH 9 0
BBX 11 18 0 -5
BITMAP
00006DD20000
0006FDF60000
002FA0F60000
00BD12F60000
03F606F60000
0AD00BF80000
1F604FCA0000
6E10DA5C0000
A907F23E0000
E42E801F1000
E6CD100F2000
AFE3000E3000
292000BD1000
000007E10000
00000C800000
00000D600010
000009C69E90
000001BED910
ENDCHAR
STARTCHAR Cacute
ENCODING 262
SWIDTH 487 0
DWIDTH 12 0
BBX 12 23 0 -1
BITMAP
000000310000
000004E50000
00002EB00000
00004A100000
000004630000
00009ECF3000
0006E2078000
001E50000000
007C00000000
00C700000000
02F100000000
06C000000000
0A8000000000
0D4000000000
1F2000000000
3E00000004E1
5C0000000BC0
6C0000006F30
5D000003F600
2F20003E7000
0AC448E60000
01BFFA200000
000010000000
ENDCHAR
STARTCHAR cacute
ENCODING 263
SWIDTH 390 0
DWIDTH 9 0
BBX 9 20 0 0
BITMAP
0000040000
00009E0000
0008F50000
000A500000
0000000000
0000200000
004EF70000
01EA8C0000
07E14F0000
0BA00D0000
0E60010000
2F30000000
3F00000000
5D00000000
6C00000570
5C00000C80
2E00002F50
0D40009D00
07D439E300
009EEA2000
ENDCHAR
STARTCHAR Ccircumflex
ENCODING 264
SWIDTH 487 0
DWIDTH 12 0
BBX 12 26 0 -1
BITMAP
000013000000
0000AF400000
0003E6E20000
000B706D1000
004D0009B000
00C50000CC00
04B000002600
000004630000
00009ECF3000
0006E2078000
001E50000000
007C00000000
00C700000000
02F100000000
06C000000000
0A8000000000
0D4000000000
1F2000000000
3E00000004E1
5C0000000BC0
6C0000006F30
5D000003F600
2F20003E7000
0AC448E60000
01BFFA200000
000010000000
ENDCHAR
STARTCHAR ccircumflex
ENCODING 265
SWIDTH 390 0
DWIDTH 9 0
BBX 9 23 0 0
BITMAP
0001300000
000BE30000
004E6D2000
00C607D100
05D000AB00
0D40001CB0
5B00000250
0000000000
0000200000
004EF70000
01EA8C0000
07E14F0000
0BA00D0000
0E60010000
2F30000000
3F00000000
5D00000000
6C00000570
5C00000C80
2E00002F50
0D40009D00
07D439E300
009EEA2000
ENDCHAR
STARTCHAR Cdotaccent
ENCODING 266
SWIDTH 487 0
DWIDTH 12 0
BBX 12 22 0 -1
BITMAP
000018400000
00002D400000
000000000000
000004630000
00009ECF3000
0006E2078000
001E50000000
007C00000000
00C700000000
02F100000000
06C000000000
0A8000000000
0D4000000000
1F2000000000
3E00000004E1
5C0000000BC0
6C0000006F30
5D000003F600
2F20003E7000
0AC448E60000
01BFFA200000
000010000000
ENDCHAR
STARTCHAR cdotaccent
ENCODING 267
SWIDTH 390 0
DWIDTH 9 0
BBX 9 17 0 0
BITMAP
000A300000
0009100000
0001200000
005EF60000
02F98C0000
08E15E0000
0C900D0000
0F50010000
2F20000000
4E00000000
5C00000000
6B00000570
6B00000C70
3D00003F40
0E4000AC00
08D439E300
009EE92000
ENDCHAR
STARTCHAR Ccaron
ENCODING 268
SWIDTH 487 0
DWIDTH 12 0
BBX 12 24 0 -1
BITMAP
002000000000
00B500006A00
001D2007C200
0004D18A1000
00008E800000
000006630000
00009ECF3000
0006E2078000
001E50000000
007C00000000
00C700000000
02F100000000
06C000000000
0A8000000000
0D4000000000
1F2000000000
3E00000004E1
5C0000000BC0
6C0000006F30
5D000003F600
2F20003E7000
0AC448E60000
01BFFA200000
000010000000
ENDCHAR
STARTCHAR ccaron
ENCODING 269
SWIDTH 390 0
DWIDTH 9 0
BBX 9 20 0 0
BITMAP
0200000000
1C20000880
04C100AA10
007A1A7000
000BE50000
0001300000
004EF70000
01EA8C0000
07E14F0000
0BA00D0000
0E60010000
2F30000000
3F00000000
5D00000000
6C00000570
5C00000C80
2E00002F50
0D40009D00
07D439E300
009EEA2000
ENDCHAR
STARTCHAR Dcaron
ENCODING 270
SWIDTH 554 0
DWIDTH 13 0
BBX 13 23 0 0
BITMAP
00020000000000
000A600004C000
0001D4005D3000
00003D26B10000
000006E9000000
00540020000000
009C8765200000
06FFAAACED7100
5EDC000004BD10
11AB0000000A90
008B00000006B0
007C0000000790
006C0000000C40
005D0000004D00
004D000000C600
003E000008D000
002E00005F3000
001F0003F70000
000E103E900000
000D12EB000000
000C3DC1000000
0002BC10000000
0002C100000000
ENDCHAR
STARTCHAR Emacron
ENCODING 274
SWIDTH 474 0
DWIDTH 11 0
BBX 11 21 0 0
BITMAP
012468ABC400
2EDCBA987200
000000000000
000000025300
2E4016CE8100
1E97EE810000
0DFE81000000
0BB100000000
099000000000
08A000003000
07B0002B9000
06C019E70000
05D7E9100000
05FC20000000
05F300000000
05F3000019D0
04F30005EA10
05F3019E5000
05F46EA10000
05FFD4000000
02A600000000
ENDCHAR
STARTCHAR emacron
ENCODING 275
SWIDTH 461 0
DWIDTH 11 0
BBX 12 18 -1 0
BITMAP
00023579BCA0
009EDCA98750
000000000000
000000000000
000000000000
000007A82000
0000BFADE200
0007F501F800
000E901BD300
005F47E91000
00CFFC300000
07FE50000021
1FF9000002E7
00A700000BD1
00A700008F40
00870007E400
005D44AD3000
0009FE810000
ENDCHAR
STARTCHAR Ebreve
ENCODING 276
SWIDTH 474 0
DWIDTH 11 0
BBX 11 22 0 0
BITMAP
000500037000
000D702E9000
0003EDFC1000
000029710000
000000025300
2E4016CE8100
1E97EE810000
0DFE81000000
0BB100000000
099000000000
08A000003000
07B0002B9000
06C019E70000
05D7E9100000
05FC20000000
05F300000000
05F3000019D0
04F30005EA10
05F3019E5000
05F46EA10000
05FFD4000000
02A600000000
ENDCHAR
STARTCHAR ebreve
ENCODING 277
SWIDTH 461 0
DWIDTH 11 0
BBX 12 18 -1 0
BITMAP
000050003700
0000D702D900
00003EDFC100
000002971000
000000000000
000007A82000
0000BFADE200
0007F501F800
000E901BD300
005F47E91000
00CFFC300000
07FE50000021
1FF9000002E7
00A700000BD1
00A700008F40
00870007E400
005D44AD3000
0009FE810000
ENDCHAR
STARTCHAR Edotaccent
ENCODING 278
SWIDTH 474 0
DWIDTH 11 0
BBX 11 20 0 0
BITMAP
000085000000
0001C5000000
000000025300
2E4016CE8100
1E97EE810000
0DFE81000000
0BB100000000
099000000000
08A000003000
07B0002B9000
06C019E70000
05D7E9100000
05FC20000000
05F300000000
05F3000019D0
04F30005EA10
05F3019E5000
05F46EA10000
05FFD4000000
02A600000000
ENDCHAR
STARTCHAR edotaccent
ENCODING 279
SWIDTH 461 0
DWIDTH 11 0
BBX 12 15 -1 0
BITMAP
000001840000
000002D40000
000007A82000
0000BFADE200
0007F501F800
000E901BD300
005F47E91000
00CFFC300000
07FE50000021
1FF9000002E7
00A700000BD1
00A700008F40
00870007E400
005D44AD3000
0009FE810000
ENDCHAR
STARTCHAR Eogonek
ENCODING 280
SWIDTH 474 0
DWIDTH 11 0
BBX 11 21 0 -3
BITMAP
000000025300
2E4016CE8100
1E97EE810000
0DFE81000000
0BB100000000
099000000000
08A000003000
07B0002B9000
06C019E70000
05D7E9100000
05FC20000000
05F300000000
05F3000019D0
04F30005EA10
05F3019E5000
05F46EE20000
05FFDF700000
02A61F300000
00000E715A50
000006FFFD20
000000253000
ENDCHAR
STARTCHAR eogonek
ENCODING 281
SWIDTH 461 0
DWIDTH 11 0
BBX 12 18 -1 -5
BITMAP
000007A82000
0000BFADE200
0007F501F800
000E901BD300
005F47E91000
00CFFC300000
07FE50000021
1FF9000002E7
00A700000BD1
00A700008F40
00870007E400
005D44AD3000
0009FFC10000
00008E100000
0000C8000000
0000D6001200
00008D8BF900
000019DC7100
ENDCHAR
STARTCHAR Ecaron
ENCODING 282
SWIDTH 474 0
DWIDTH 11 0
BBX 11 23 0 0
BITMAP
020000000000
06A00002C200
00A7003D5000
001D43C30000
0003EC100000
000020025300
2E4016CE8100
1E97EE810000
0DFE81000000
0BB100000000
099000000000
08A000003000
07B0002B9000
06C019E70000
05D7E9100000
05FC20000000
05F300000000
05F3000019D0
04F30005EA10
05F3019E5000
05F46EA10000
05FFD4000000
02A600000000
ENDCHAR
STARTCHAR ecaron
ENCODING 283
SWIDTH 461 0
DWIDTH 11 0
BBX 12 20 -1 0
BITMAP
001100000000
003C10001A50
0006B001C800
0000A81C5000
00001DD30000
000001100000
000000000000
000007A82000
0000BFADE200
0007F501F800
000E901BD300
005F47E91000
00CFFC300000
07FE50000021
1FF9000002E7
00A700000BD1
00A700008F40
00870007E400
005D44AD3000
0009FE810000
ENDCHAR
STARTCHAR Gcircumflex
ENCODING 284
SWIDTH 591 0
DWIDTH 14 0
BBX 14 26 0 -3
BITMAP
00000040000000
000006F8000000
00000D7D600000
00007C02E40000
0001E3005E2000
0008900007E200
000E1000007100
00000004880000
000001BFC70000
00001C92000000
0000AB00000000
0006D100000000
001E5000000000
007B0000014796
01E30003BFFFD3
07B00002336F60
0C50000000BF20
2F10000006FF00
5C0000003EFE00
7B000003EC7D00
6E30017EA16D00
1CFDCFE7007D00
016AA710007E00
00000000006F00
00000000004F20
00000000000710
ENDCHAR
STARTCHAR gcircumflex
ENCODING 285
SWIDTH 437 0
DWIDTH 11 0
BBX 10 34 0 -11
BITMAP
0000410000
0003FA0000
000B9B8000
004D11D600
00C6003E40
05C00005E4
0C30000062
0000000000
0000000000
0000002100
00003CFF80
0003E94FD0
001D705FE0
009A00BCF1
03E103E7F2
09900A96F3
1E302F35F4
5D00AC04F6
8A04F403F7
9B2DA002F8
4FFD1001F9
07920001FA
00000001FA
00000001FA
00000001F9
00000002F6
00000003F2
00000007E0
0000000B80
0000004F20
000002DA00
00016DD100
00BFFC2000
0002200000
ENDCHAR
STARTCHAR Gbreve
ENCODING 286
SWIDTH 591 0
DWIDTH 14 0
BBX 14 23 0 -3
BITMAP
00000500047000
00001D603E8000
000003EDFC1000
00000039710000
00000004880000
000001BFC70000
00001C92000000
0000AB00000000
0006D100000000
001E5000000000
007B0000014796
01E30003BFFFD3
07B00002336F60
0C50000000BF20
2F10000006FF00
5C0000003EFE00
7B000003EC7D00
6E30017EA16D00
1CFDCFE7007D00
016AA710007E00
00000000006F00
00000000004F20
00000000000710
ENDCHAR
STARTCHAR gbreve
ENCODING 287
SWIDTH 437 0
DWIDTH 11 0
BBX 10 31 0 -11
BITMAP
0014000640
003E305F50
0006FDF900
0000595000
0000000000
0000000000
0000002100
00003CFF80
0003E94FD0
001D705FE0
009A00BCF1
03E103E7F2
09900A96F3
1E302F35F4
5D00AC04F6
8A04F403F7
9B2DA002F8
4FFD1001F9
07920001FA
00000001FA
00000001FA
00000001F9
00000002F6
00000003F2
00000007E0
0000000B80
0000004F20
000002DA00
00016DD100
00BFFC2000
0002200000
ENDCHAR
STARTCHAR Gdotaccent
ENCODING 288
SWIDTH 591 0
DWIDTH 14 0
BBX 14 23 1 -3
BITMAP
00000292000000
000005C2000000
00000000000000
00000000000000
00000017930000
000005EE930000
00006D50000000
0004E300000000
001D6000000000
008C0000000000
01E30000036891
08A00008EFFF70
1E30001333DD00
5C00000005F900
A70000001DF700
D4000000BFF600
F3000009F6E500
F80004CE40E500
7FECEFB200F500
039A940000F600
0000000000E700
0000000000C900
00000000004300
ENDCHAR
STARTCHAR gdotaccent
ENCODING 289
SWIDTH 437 0
DWIDTH 11 0
BBX 10 27 0 -11
BITMAP
0000019300
000004D300
0000002100
00003CFF80
0003E94FD0
001D705FE0
009A00BCF1
03E103E7F2
09900A96F3
1E302F35F4
5D00AC04F6
8A04F403F7
9B2DA002F8
4FFD1001F9
07920001FA
00000001FA
00000001FA
00000001F9
00000002F6
00000003F2
00000007E0
0000000B80
0000004F20
000002DA00
00016DD100
00BFFC2000
0002200000
ENDCHAR
STARTCHAR Gcommaaccent
ENCODING 290
SWIDTH 591 0
DWIDTH 14 0
BBX 14 24 0 -8
BITMAP
00000004880000
000001BFC70000
00001C92000000
0000AB00000000
0006D100000000
001E5000000000
007B0000014796
01E30003BFFFD3
07B00002336F60
0C50000000BF20
2F10000006FF00
5C0000003EFE00
7B000003EC7D00
6E30017EA16D00
1CFDCFE7007D00
016AA710007E00
00000000006F00
00000000004F20
00000066000710
000000DC000000
000000AC000000
000000A9000000
000000B6000000
00000072000000
ENDCHAR
STARTCHAR Hcircumflex
ENCODING 292
SWIDTH 424 0
DWIDTH 10 0
BBX 10 25 0 0
BITMAP
0001300000
000BF30000
003E6D2000
00C706D100
05D0009B00
0C40000CB0
5B00000260
0000000000
0000000000
3B00003C00
4F00002F30
4F00000D40
3F10000B60
2F10000B70
2F10000B80
1F20001FA0
1F3001BFB0
0F517E96D0
0FDEB203E0
0EE50002F0
0E600001F2
0D300000E3
0D400000D5
0C600000C6
0B50000084
ENDCHAR
STARTCHAR hcircumflex
ENCODING 293
SWIDTH 466 0
DWIDTH 11 0
BBX 12 24 0 -1
BITMAP
000000310000
000001EC1000
000009B9A000
00002E20B900
0000A8001D60
2903D10003E6
3F0A60000043
3F1000000000
3F1000000000
3F1000000000
3F2000000000
3F20006AB700
3F200BFEBF40
3F308FC10E60
3F32FD100E70
3F38F5000D70
3F4DB0000D70
3F7F40000D80
3FDC00000C80
3FF500000C80
3FD000000B90
3F5000000B90
180000000B90
000000000110
ENDCHAR
STARTCHAR Hbar
ENCODING 294
SWIDTH 424 0
DWIDTH 10 0
BBX 10 16 0 0
BITMAP
3B00003C00
4F00002F30
4F00000D40
3F00001C70
4F9ACEFFF0
5F86543C90
1F20001EA0
1F3001BFB0
0F517E96D0
0FDEB203E0
0EE50002F0
0E600001F2
0D300000E3
0D400000D5
0C600000C6
0B50000084
ENDCHAR
STARTCHAR hbar
ENCODING 295
SWIDTH 466 0
DWIDTH 11 0
BBX 13 19 -2 -1
BITMAP
00290000000000
003F0000000000
003F1000000000
003F1000000000
003F1000000000
147FACDFF20000
4BBF96559BB700
003F200BFEBF40
003F308FC10E60
003F32FD100E70
003F38F5000D70
003F4DB0000D70
003F7F40000D80
003FDC00000C80
003FF500000C80
003FD000000B90
003F5000000B90
00180000000B90
00000000000110
ENDCHAR
STARTCHAR Itilde
ENCODING 296
SWIDTH 153 0
DWIDTH 4 0
BBX 10 24 -3 0
BITMAP
0012000000
07EFD201A5
4F41D909F5
6B005FBF80
000006A500
0000000000
0000960000
0000990000
00008A0000
00007B0000
00006C0000
00006C0000
00005D0000
00005D0000
00005E0000
00004E0000
00004E0000
00004E0000
00004F0000
00004F0000
00003F0000
00003F0000
00002F0000
00001C0000
ENDCHAR
STARTCHAR itilde
ENCODING 297
SWIDTH 132 0
DWIDTH 3 0
BBX 10 20 -3 -1
BITMAP
07CC600270
8E49F20BF1
C701DB9F60
30003DD500
0000000000
0000910000
0001F30000
0002F30000
0003F30000
0003F20000
0003F20000
0003F20000
0003F20000
0002F20000
0002F20000
0001F20000
0001F20000
0001F20000
0000F20000
0000200000
ENDCHAR
STARTCHAR imacron
ENCODING 299
SWIDTH 132 0
DWIDTH 3 0
BBX 9 19 -3 -1
BITMAP
023579BCB0
8EDCA98760
0000000000
0000000000
0000910000
0001F30000
0002F30000
0003F30000
0003F20000
0003F20000
0003F20000
0003F20000
0002F20000
0002F20000
0001F20000
0001F20000
0001F20000
0000F20000
0000200000
ENDCHAR
STARTCHAR Ibreve
ENCODING 300
SWIDTH 153 0
DWIDTH 4 0
BBX 6 24 -1 0
BITMAP
410019
AA01BD
1CEEE3
018820
000000
000000
009600
009900
008A00
007B00
006C00
006C00
005D00
005D00
005E00
004E00
004E00
004E00
004F00
004F00
003F00
003F00
002F00
001C00
ENDCHAR
STARTCHAR ibreve
ENCODING 301
SWIDTH 132 0
DWIDTH 3 0
BBX 6 20 -1 -1
BITMAP
81005A
BA15E8
1CFFA0
016500
000000
009100
01F300
02F300
03F300
03F200
03F200
03F200
03F200
02F200
02F200
01F200
01F200
01F200
00F200
002000
ENDCHAR
STARTCHAR Iogonek
ENCODING 302
SWIDTH 153 0
DWIDTH 4 0
BBX 6 23 0 -5
BITMAP
096000
099000
08A000
07B000
06C000
06C000
05D000
05D000
05E000
04E000
04E000
04E000
04F000
04F000
03F000
03F000
03F100
1DD100
7E1000
B90000
A80034
5FADFA
05AA60
ENDCHAR
STARTCHAR iogonek
ENCODING 303
SWIDTH 132 0
DWIDTH 3 0
BBX 6 24 -1 -6
BITMAP
056000
037000
000000
000000
009100
01F300
02F300
03F300
03F200
03F200
03F200
03F200
02F200
02F200
01F200
01F200
01F200
02F400
1DB100
6E1000
9A0000
8C0168
2EEFFA
027740
ENDCHAR
STARTCHAR Idotaccent
ENCODING 304
SWIDTH 153 0
DWIDTH 4 0
BBX 2 22 1 0
BITMAP
76
C7
00
00
C2
D5
C6
B7
A8
A8
99
99
9A
8A
8A
8A
8B
8B
7B
7B
6B
49
ENDCHAR
STARTCHAR dotlessi
ENCODING 305
SWIDTH 132 0
DWIDTH 3 0
BBX 3 15 0 -1
BITMAP
0910
1F30
2F30
3F30
3F20
3F20
3F20
3F20
2F20
2F20
1F20
1F20
1F20
0F20
0200
ENDCHAR
STARTCHAR Jcircumflex
ENCODING 308
SWIDTH 371 0
DWIDTH 9 0
BBX 10 26 0 -2
BITMAP
0000140000
00008F5000
0002E6E400
0009904E20
002E1007D1
00A70000AD
02D0001017
000005A000
000004C000
000003E000
000002F200
000001F400
000000E600
000000C900
000000AB00
0000008C00
0000006E00
0000005F00
0000003F10
0000001F10
3000001F20
9200000F20
4B00001F00
0B80004C00
01BA67E400
0004772000
ENDCHAR
STARTCHAR jcircumflex
ENCODING 309
SWIDTH 112 0
DWIDTH 3 0
BBX 11 32 -5 -9
BITMAP
000003100000
00002FC00000
0000AAAA0000
0003E10C8000
000B7002E600
004D00004F60
00B500000520
000000000000
000000000000
000000000000
000001400000
000005E00000
000005E00000
000005E00000
000005E00000
000004E00000
000004F00000
000003F10000
000002F20000
000001F30000
000000F50000
000000E60000
000000D60000
000000C70000
000000B70000
000000B80000
000000C60000
140000E40000
0E6004F10000
03E72DA00000
0019EE200000
000001000000
ENDCHAR
STARTCHAR Kcommaaccent
ENCODING 310
SWIDTH 524 0
DWIDTH 13 0
BBX 13 25 0 -8
BITMAP
02000000000000
4E100000110000
1F300002D30000
0D40001D800000
0B6000AD100000
0A8004F3000000
08901D80000000
07B08C00000000
06D3E200000000
04EC8000000000
03FF1000000000
02FB0000000000
00FD9766655520
00ECAAAAAAAA30
00C70000000000
00890000000000
00470000000000
00000000000000
00000000000000
00000580000000
00000BF0000000
000008F0000000
000008C0000000
00000880000000
00000630000000
ENDCHAR
STARTCHAR kcommaaccent
ENCODING 311
SWIDTH 428 0
DWIDTH 10 0
BBX 10 27 0 -8
BITMAP
0220000000
0B80000000
0BA0000000
0CA0000000
0DA0000001
0D900000BA
0E800008F5
0E70003FC0
0F6000CF30
0F5008F900
1F503FD100
1F41DE2000
2F5BF40000
3FEE400000
3FF3000000
4FFC400000
4F39ED8410
5F0006CFF7
5C00000384
4700000000
0000000000
0000660000
0000DD0000
0000AC0000
0000AA0000
0000A60000
0000720000
ENDCHAR
STARTCHAR Lacute
ENCODING 313
SWIDTH 537 0
DWIDTH 13 0
BBX 13 18 0 0
BITMAP
00000003100000
0000004F400000
000002EB000000
4F400590000000
4F500000000000
3F600000000000
2F700000000000
1F700000000000
1F800000000000
0F800000000000
0F900000000000
0F900000000000
0EA00000000430
0EA0000005CF70
0DB00016DD6100
0DB017ED600000
0DDAFD60000000
0BEB6000000000
ENDCHAR
STARTCHAR lacute
ENCODING 314
SWIDTH 137 0
DWIDTH 3 0
BBX 3 27 0 0
BITMAP
0040
08F0
6F60
9600
0000
0000
2400
6C00
4D00
2E00
1F00
0E20
0D20
0D30
0C40
0B50
0B60
0A60
0A60
0970
0A70
0A80
0A80
0A90
0B90
0D90
0540
ENDCHAR
STARTCHAR Lcommaaccent
ENCODING 315
SWIDTH 537 0
DWIDTH 13 0
BBX 13 23 0 -8
BITMAP
4F400000000000
4F500000000000
3F600000000000
2F700000000000
1F700000000000
1F800000000000
0F800000000000
0F900000000000
0F900000000000
0EA00000000430
0EA0000005CF70
0DB00016DD6100
0DB017ED600000
0DDAFD60000000
0BEB6000000000
00000000000000
00000000000000
00000390000000
000008F2000000
000005F2000000
000005E0000000
000006B0000000
00000450000000
ENDCHAR
STARTCHAR lcommaaccent
ENCODING 316
SWIDTH 137 0
DWIDTH 3 0
BBX 3 29 0 -8
BITMAP
2400
6C00
4D00
2E00
1F00
0E20
0D20
0D30
0C40
0B50
0B60
0A60
0A60
0970
0A70
0A80
0A80
0A90
0B90
0D90
0540
0000
0000
1A20
5F60
2F60
2F30
2E00
2700
ENDCHAR
STARTCHAR Lcaron
ENCODING 317
SWIDTH 537 0
DWIDTH 13 0
BBX 13 23 0 0
BITMAP
02000000000000
06A00002C20000
00A7003D500000
001D43C3000000
0003EC10000000
00002000000000
00000000000000
00000000000000
4F400000000000
4F500000000000
3F600000000000
2F700000000000
1F700000000000
1F800000000000
0F800000000000
0F900000000000
0F900000000000
0EA00000000430
0EA0000005CF70
0DB00016DD6100
0DB017ED600000
0DDAFD60000000
0BEB6000000000
ENDCHAR
STARTCHAR Ldot
ENCODING 319
SWIDTH 537 0
DWIDTH 13 0
BBX 13 15 0 0
BITMAP
4F400000000000
4F500000000000
3F600000000000
2F700000000000
1F700000000000
1F800000000000
0F800000000000
0F900000000000
0F9002B4000000
0EA003A2000430
0EA0000005CF70
0DB00016DD6100
0DB017ED600000
0DDAFD60000000
0BEB6000000000
ENDCHAR
STARTCHAR ldot
ENCODING 320
SWIDTH 267 0
DWIDTH 6 0
BBX 6 21 0 0
BITMAP
240000
6C0000
4D0000
2E0000
1F0000
0E2000
0D2000
0D3000
0C4000
0B5000
0B6000
0A6000
0A6000
097000
0A71B6
0A81A3
0A8000
0A9000
0B9000
0D9000
054000
ENDCHAR
STARTCHAR Lslash
ENCODING 321
SWIDTH 537 0
DWIDTH 13 0
BBX 14 15 -1 0
BITMAP
04F40000000000
04F50000000000
03F60000000000
02F70000000000
01F70000000000
01F80000000000
00F80001200000
00F916BFD00000
00FDEFB7200000
9EFD5100000043
22EA0000005CF7
00DB00016DD610
00DB017ED60000
00DDAFD6000000
00BEB600000000
ENDCHAR
STARTCHAR lslash
ENCODING 322
SWIDTH 137 0
DWIDTH 3 0
BBX 9 21 -3 0
BITMAP
0002400000
0006C00000
0004D00000
0002E00000
0001F00000
0000E20000
0000D20000
0000D30000
0000C40000
0000B50000
0000B50000
0000A60000
0000A60000
0000A75AB0
0002CFFD80
38CFEB3000
5861A80000
0000A90000
0000B90000
0000D90000
0000540000
ENDCHAR
STARTCHAR Nacute
ENCODING 323
SWIDTH 541 0
DWIDTH 13 0
BBX 13 21 0 0
BITMAP
00000040000000
00000AD0000000
00008F50022000
0000A50008C000
0000000005F100
2400000003F300
4F70000001F400
2FF5000000F400
1FFE200000E400
0E9DC00000E500
0C82E80000D500
0B805F4000D500
099008E200C600
07B000BC00C600
06D0001D80D700
04F00003E4D700
02F200006EF800
00F4000009FA00
00E5000000DF10
00D60000008A00
00A50000000000
ENDCHAR
STARTCHAR nacute
ENCODING 324
SWIDTH 483 0
DWIDTH 12 0
BBX 11 19 0 0
BITMAP
000000310000
000005F30000
00003F900000
000069000000
000000000000
3900005DB100
4E0007FEF800
3F103FA05D00
2F30AE100F20
1F50E9000F40
0F73F3000E70
0E87D0000D80
0DAA80000C90
0CCE40000BA0
0BFE00000AA0
0AFB000009A0
08F8000008A0
07F5000007B0
05D200000230
ENDCHAR
STARTCHAR Ncommaaccent
ENCODING 325
SWIDTH 541 0
DWIDTH 13 0
BBX 13 27 0 -8
BITMAP
00000000022000
0000000008C000
0000000005F100
2400000003F300
4F70000001F400
2FF5000000F400
1FFE200000E400
0E9DC00000E500
0C82E80000D500
0B805F4000D500
099008E200C600
07B000BC00C600
06D0001D80D700
04F00003E4D700
02F200006EF800
00F4000009FA00
00E5000000DF10
00D60000008A00
00A50000000000
00000000000000
00000000000000
00000390000000
000008F2000000
000005F2000000
000005F0000000
000005B0000000
00000450000000
ENDCHAR
STARTCHAR ncommaaccent
ENCODING 326
SWIDTH 483 0
DWIDTH 12 0
BBX 11 22 0 -8
BITMAP
3900005DB100
4E0007FEF800
3F103FA05D00
2F30AE100F20
1F50E9000F40
0F73F3000E70
0E87D0000D80
0DAA80000C90
0CCE40000BA0
0BFE00000AA0
0AFB000009A0
08F8000008A0
07F5000007B0
05D200000230
000000000000
000000000000
000009300000
00003F700000
00000F700000
00000F500000
00000F100000
000018000000
ENDCHAR
STARTCHAR Ncaron
ENCODING 327
SWIDTH 541 0
DWIDTH 13 0
BBX 13 22 0 0
BITMAP
00200000000000
007900003C1000
000B6003D40000
0001D34C222000
00004EB108C000
0000020005F100
2400000003F300
4F70000001F400
2FF5000000F400
1FFE200000E400
0E9DC00000E500
0C82E80000D500
0B805F4000D500
099008E200C600
07B000BC00C600
06D0001D80D700
04F00003E4D700
02F200006EF800
00F4000009FA00
00E5000000DF10
00D60000008A00
00A50000000000
ENDCHAR
STARTCHAR ncaron
ENCODING 328
SWIDTH 483 0
DWIDTH 12 0
BBX 11 20 0 0
BITMAP
002000000000
01C300007900
003D1009B100
0006B1A80000
0000AE600000
000002000000
3900005DB100
4E0007FEF800
3F103FA05D00
2F30AE100F20
1F50E9000F40
0F73F3000E70
0E87D0000D80
0DAA80000C90
0CCE40000BA0
0BFE00000AA0
0AFB000009A0
08F8000008A0
07F5000007B0
05D200000230
ENDCHAR
STARTCHAR napostrophe
ENCODING 329
SWIDTH 483 0
DWIDTH 12 0
BBX 11 21 0 0
BITMAP
000930000000
002F80000000
000E80000000
000E60000000
000F20000000
000900000000
000000000000
3900005DB100
4E0007FEF800
3F103FA05D00
2F30AE100F20
1F50E9000F40
0F73F3000E70
0E87D0000D80
0DAA80000C90
0CCE40000BA0
0BFE00000AA0
0AFB000009A0
08F8000008A0
07F5000007B0
05D200000230
ENDCHAR
STARTCHAR Omacron
ENCODING 332
SWIDTH 382 0
DWIDTH 9 0
BBX 11 19 0 0
BITMAP
0013578ACC10
06EDCBA87610
000002000000
0004DFD30000
002EC7BE1000
00AA001E7000
02F3000AA000
08D00008C000
0C900007D000
1F400008D000
4F100009C000
6D00000B9000
8B00000E6000
9900004F3000
9900008E0000
7B0001E70000
3F200AD10000
0BE9CE300000
02CEA2000000
ENDCHAR
STARTCHAR omacron
ENCODING 333
SWIDTH 266 0
DWIDTH 6 0
BBX 9 18 -1 0
BITMAP
124689BC60
DDCBA98730
0000000000
0000000000
0001200000
004FF50000
009D8D1000
00D4078000
01F004C000
04D003E000
06C003F000
08C004F000
08C006D000
08C009B000
06C00D6000
06D06F1000
04F9E70000
00CD600000
ENDCHAR
STARTCHAR Obreve
ENCODING 334
SWIDTH 382 0
DWIDTH 9 0
BBX 9 21 0 0
BITMAP
0050004600
01E503E700
004FDFB000
0003960000
0000020000
0004DFD300
002EC7BE10
00AA001E70
02F3000AA0
08D00008C0
0C900007D0
1F400008D0
4F100009C0
6D00000B90
8B00000E60
9900004F30
9900008E00
7B0001E700
3F200AD100
0BE9CE3000
02CEA20000
ENDCHAR
STARTCHAR obreve
ENCODING 335
SWIDTH 266 0
DWIDTH 6 0
BBX 7 18 0 0
BITMAP
14000640
3E305F50
06FDF900
00595000
00120000
04FF5000
09D8D100
0D407800
1F004C00
4D003E00
6C003F00
8C004F00
8C006D00
8C009B00
6C00D600
6D06F100
4F9E7000
0CD60000
ENDCHAR
STARTCHAR Ohungarumlaut
ENCODING 336
SWIDTH 382 0
DWIDTH 9 0
BBX 10 21 0 0
BITMAP
000001A020
00001CD3E5
00009E4EC0
0000425B10
0000020000
0004DFD300
002EC7BE10
00AA001E70
02F3000AA0
08D00008C0
0C900007D0
1F400008D0
4F100009C0
6D00000B90
8B00000E60
9900004F30
9900008E00
7B0001E700
3F200AD100
0BE9CE3000
02CEA20000
ENDCHAR
STARTCHAR ohungarumlaut
ENCODING 337
SWIDTH 266 0
DWIDTH 6 0
BBX 7 18 0 0
BITMAP
00380200
03EA5F20
0DC5F900
05189000
00120000
04FF5000
09D8D100
0D407800
1F004C00
4D003E00
6C003F00
8C004F00
8C006D00
8C009B00
6C00D600
6D06F100
4F9E7000
0CD60000
ENDCHAR
STARTCHAR OE
ENCODING 338
SWIDTH 732 0
DWIDTH 18 0
BBX 18 18 0 0
BITMAP
000000000000000100
0000020830016BD500
0004DFCFA18EE71000
002EC7BFEEE7100000
00AA001EE710000000
02F3000AC000000000
08D00008C000000000
0C900007D00004C000
1F400008E002AD3000
4F100009F18E700000
6D00000BFE91000000
8B00000EF800000000
9900004FF600000391
9900008EF600008E70
7B0001E9F6003CC200
3F200AD2F617E70000
0BE9CE31FDEB200000
02CEA201FC50000000
ENDCHAR
STARTCHAR oe
ENCODING 339
SWIDTH 628 0
DWIDTH 15 0
BBX 15 14 0 0
BITMAP
0012000000000000
04FF50006DEA1000
09D8D106FA6CC000
0D40781EA009F200
1F004C7E119E5000
4D003EDC8EA20000
6C003FFFC4000000
8C004FF800000170
8C006FF200000AE0
8C009DF100006F50
6C00D8F00003F800
6D06E1E2004E8000
4F9E609B7AE50000
0CD50018B7100000
ENDCHAR
STARTCHAR Racute
ENCODING 340
SWIDTH 503 0
DWIDTH 12 0
BBX 12 23 0 0
BITMAP
000000031000
0000003E6000
000002EC0000
000004A10000
1E6001564100
1F719EFEEF91
1FCEA41006F7
1FD2000004F3
1F7000004D50
1F500018D300
1F4005D91000
1F34CC300000
1FCF80000000
1FD300000000
1FE810000000
1FBFE7100000
0F129FE70000
0F10029FE710
0F1000018EE7
0F1000000179
0F1000000000
0F1000000000
0A0000000000
ENDCHAR
STARTCHAR racute
ENCODING 341
SWIDTH 396 0
DWIDTH 10 0
BBX 9 18 0 0
BITMAP
0000013000
00001D9000
0000CE2000
0001B20000
0000000000
0000002210
4B003DFFD0
4E01ED5310
2F17E20000
0E3BA00000
0C5D700000
0A7E500000
079F400000
05CF300000
03FF200000
00FF000000
00DE000000
008A000000
ENDCHAR
STARTCHAR Rcommaaccent
ENCODING 342
SWIDTH 503 0
DWIDTH 12 0
BBX 12 27 0 -8
BITMAP
1E6001564100
1F719EFEEF91
1FCEA41006F7
1FD2000004F3
1F7000004D50
1F500018D300
1F4005D91000
1F34CC300000
1FCF80000000
1FD300000000
1FE810000000
1FBFE7100000
0F129FE70000
0F10029FE710
0F1000018EE7
0F1000000179
0F1000000000
0F1000000000
0A0000000000
000000000000
000000000000
000007500000
00000EB00000
00000BB00000
00000B800000
00000C500000
000008100000
ENDCHAR
STARTCHAR rcommaaccent
ENCODING 343
SWIDTH 396 0
DWIDTH 10 0
BBX 9 21 0 -8
BITMAP
0000002210
4B003DFFD0
4E01ED5310
2F17E20000
0E3BA00000
0C5D700000
0A7E500000
079F400000
05CF300000
03FF200000
00FF000000
00DE000000
008A000000
0000000000
0000000000
0000930000
0003F70000
0000F70000
0000F50000
0000F10000
0001800000
ENDCHAR
STARTCHAR Rcaron
ENCODING 344
SWIDTH 503 0
DWIDTH 12 0
BBX 12 25 0 0
BITMAP
001100000000
003C10001A50
0007A001C700
0000B72C5000
00001DD30000
000001100000
1E6001564100
1F719EFEEF91
1FCEA41006F7
1FD2000004F3
1F7000004D50
1F500018D300
1F4005D91000
1F34CC300000
1FCF80000000
1FD300000000
1FE810000000
1FBFE7100000
0F129FE70000
0F10029FE710
0F1000018EE7
0F1000000179
0F1000000000
0F1000000000
0A0000000000
ENDCHAR
STARTCHAR rcaron
ENCODING 345
SWIDTH 396 0
DWIDTH 10 0
BBX 9 20 0 0
BITMAP
0200000000
1C30000880
03D1009A10
006B1A8000
000AE60000
0000200000
0000000000
0000002210
4B003DFFD0
4E01ED5310
2F17E20000
0E3BA00000
0C5D700000
0A7E500000
079F400000
05CF300000
03FF200000
00FF000000
00DE000000
008A000000
ENDCHAR
STARTCHAR Sacute
ENCODING 346
SWIDTH 541 0
DWIDTH 13 0
BBX 13 22 0 0
BITMAP
00000004000000
0000006F200000
000004F9000000
00000780000000
00000004650000
000007DDFD0000
0003C910620000
004E5000000000
03E50000000000
0D800000000000
6E100000000000
A9000000000000
A8000000000000
5E300000000000
06DA7421000000
00048ADEECA400
00000000137F30
00000000005F40
000000003AE600
0000038DE91000
0008EFB6100000
00175100000000
ENDCHAR
STARTCHAR sacute
ENCODING 347
SWIDTH 366 0
DWIDTH 9 0
BBX 9 19 0 -1
BITMAP
0000031000
00005F4000
0003EA0000
0005900000
0000000000
0000001000
0005CFF200
009D425000
07E2000000
1E60000000
5E00000000
6C0016A600
3FCCFDEF40
07A7200C70
0000006E10
000007F500
0001BF6000
004EE50000
0037100000
ENDCHAR
STARTCHAR Scircumflex
ENCODING 348
SWIDTH 541 0
DWIDTH 13 0
BBX 13 25 0 0
BITMAP
00000040000000
000006F7000000
00001E7D500000
00007B03E30000
0001E2005E2000
0008900008E200
001D1000007000
00000004650000
000007DDFD0000
0003C910620000
004E5000000000
03E50000000000
0D800000000000
6E100000000000
A9000000000000
A8000000000000
5E300000000000
06DA7421000000
00048ADEECA400
00000000137F30
00000000005F40
000000003AE600
0000038DE91000
0008EFB6100000
00175100000000
ENDCHAR
STARTCHAR scircumflex
ENCODING 349
SWIDTH 366 0
DWIDTH 9 0
BBX 9 21 0 -1
BITMAP
0001300000
000BE30000
004E6D2000
00C607D100
05D000AB00
0D40001CB0
5B00000250
0000001000
0005CFF200
009D425000
07E2000000
1E60000000
5E00000000
6C0016A600
3FCCFDEF40
07A7200C70
0000006E10
000007F500
0001BF6000
004EE50000
0037100000
ENDCHAR
STARTCHAR Scedilla
ENCODING 350
SWIDTH 541 0
DWIDTH 13 0
BBX 14 25 0 -7
BITMAP
00000004650000
000007DDFD0000
0003C910620000
004E5000000000
03E50000000000
0D800000000000
6E100000000000
A9000000000000
A8000000000000
5E300000000000
06DA7421000000
00048ADEECA400
00000000137F30
00000000005F40
000000003AE600
0000038DF91000
0008EFB7D00000
00175103E00000
00000004F50000
00000001EFB300
0000000038EF60
00000000001CF1
00000000037EF2
00000002EFFC60
00000000320000
ENDCHAR
STARTCHAR scedilla
ENCODING 351
SWIDTH 366 0
DWIDTH 9 0
BBX 9 21 0 -8
BITMAP
0000001000
0005CFF200
009D425000
07E2000000
1E60000000
5E00000000
6C0016A600
3FCCFDEF40
07A7200C70
0000006E10
000007F500
0001BF6000
004EE50000
003CA00000
0009B00000
0006FD4000
00018DFB10
0000006FA0
0000015FD0
0005CFFE60
0003764000
ENDCHAR
STARTCHAR Scaron
ENCODING 352
SWIDTH 541 0
DWIDTH 13 0
BBX 13 23 0 0
BITMAP
00110000000000
003C10001B5000
0007A001C70000
0000B72C400000
00001DD3000000
00000114650000
000007DDFD0000
0003C910620000
004E5000000000
03E50000000000
0D800000000000
6E100000000000
A9000000000000
A8000000000000
5E300000000000
06DA7421000000
00048ADEECA400
00000000137F30
00000000005F40
000000003AE600
0000038DE91000
0008EFB6100000
00175100000000
ENDCHAR
STARTCHAR scaron
ENCODING 353
SWIDTH 366 0
DWIDTH 9 0
BBX 9 20 0 -1
BITMAP
1100000000
4C00001B40
089002C600
00B62C4000
002EC20000
0001100000
0000001000
0005CFF200
009D425000
07E2000000
1E60000000
5E00000000
6C0016A600
3FCCFDEF40
07A7200C70
0000006E10
000007F500
0001BF6000
004EE50000
0037100000
ENDCHAR
STARTCHAR Tcommaaccent
ENCODING 354
SWIDTH 595 0
DWIDTH 14 0
BBX 17 25 0 -8
BITMAP
00000009B3578ABD70
01368ACFFEDCA96200
8FFDA759F000000000
23100005F000000000
00000003F000000000
00000001F100000000
00000000F300000000
00000000E500000000
00000000C700000000
00000000B900000000
000000009B00000000
000000008D00000000
000000006F00000000
000000005F10000000
000000003F20000000
000000000F30000000
000000000C40000000
000000000000000000
000000000000000000
000000000390000000
0000000009F2000000
0000000006F1000000
0000000006E0000000
0000000006A0000000
000000000540000000
ENDCHAR
STARTCHAR tcommaaccent
ENCODING 355
SWIDTH 268 0
DWIDTH 6 0
BBX 8 27 -1 -8
BITMAP
00120000
007D0000
007C0000
007B0000
008A0000
008A0043
008DAEF7
17EFE920
BFFB1000
66BA0000
00AB0000
009B0000
008C0000
007D0000
007D0000
006E0000
005E0000
004F0000
003F0000
00160000
00000000
00058000
000BF000
0008F000
0008C000
00088000
00063000
ENDCHAR
STARTCHAR Tcaron
ENCODING 356
SWIDTH 595 0
DWIDTH 14 0
BBX 17 24 0 0
BITMAP
000002000000000000
000007900003C10000
000000B6003D400000
0000001D34C2000000
00000004EB10000000
000000002000000000
000000000000000000
00000009B3578ABD70
01368ACFFEDCA96200
8FFDA759F000000000
23100005F000000000
00000003F000000000
00000001F100000000
00000000F300000000
00000000E500000000
00000000C700000000
00000000B900000000
000000009B00000000
000000008D00000000
000000006F00000000
000000005F10000000
000000003F20000000
000000000F30000000
000000000C40000000
ENDCHAR
STARTCHAR Tbar
ENCODING 358
SWIDTH 595 0
DWIDTH 14 0
BBX 17 17 0 0
BITMAP
00000009B3578ABD70
01368ACFFEDCA96200
8FFDA759F000000000
23100005F000000000
00000003F000000000
00002458FCDE600000
0001CCBAF965200000
00000000E500000000
00000000C700000000
00000000B900000000
000000009B00000000
000000008D00000000
000000006F00000000
000000005F10000000
000000003F20000000
000000000F30000000
000000000C40000000
ENDCHAR
STARTCHAR Utilde
ENCODING 360
SWIDTH 450 0
DWIDTH 11 0
BBX 11 24 0 -3
BITMAP
000110000000
01AFFB003B20
09E14F40DE10
0A600AECE400
0000018A3000
000000000000
030000003A00
4F3000007F10
4F300000AF00
3F300000CF00
3F300000EE00
2F300002FD00
2F300005FC00
1F300008FC00
1F30000CFB00
0F30001FAC00
0F30005E5C00
0D4000B73E00
0A9005E11F00
05FA9E400F20
006B93000E30
000000000C40
000000000B50
000000000720
ENDCHAR
STARTCHAR utilde
ENCODING 361
SWIDTH 387 0
DWIDTH 9 0
BBX 9 19 0 -1
BITMAP
0011000000
2CFF9005A0
BC07F22ED0
D400CDDE30
0000299100
0000000000
1900004500
3F00008C00
2F10008B00
2F10009B00
2F20009B00
2F3000AB00
1F4000DB00
0F5004FB00
0D600CFD00
0A806FBE00
06D6FA2F20
01DF900E60
0002000430
ENDCHAR
STARTCHAR Umacron
ENCODING 362
SWIDTH 450 0
DWIDTH 11 0
BBX 11 21 0 -3
BITMAP
0023579BC800
0BECBA987400
000000000000
030000003A00
4F3000007F10
4F300000AF00
3F300000CF00
3F300000EE00
2F300002FD00
2F300005FC00
1F300008FC00
1F30000CFB00
0F30001FAC00
0F30005E5C00
0D4000B73E00
0A9005E11F00
05FA9E400F20
006B93000E30
000000000C40
000000000B50
000000000720
ENDCHAR
STARTCHAR umacron
ENCODING 363
SWIDTH 387 0
DWIDTH 9 0
BBX 9 19 0 -1
BITMAP
013579BCB0
8EDCB98760
0000000000
0000000000
0000000000
0000000000
1900004500
3F00008C00
2F10008B00
2F10009B00
2F20009B00
2F3000AB00
1F4000DB00
0F5004FB00
0D600CFD00
0A806FBE00
06D6FA2F20
01DF900E60
0002000430
ENDCHAR
STARTCHAR Ubreve
ENCODING 364
SWIDTH 450 0
DWIDTH 11 0
BBX 11 21 0 -3
BITMAP
001500056000
002E504E7000
0004FDFB0000
030039603A00
4F3000007F10
4F300000AF00
3F300000CF00
3F300000EE00
2F300002FD00
2F300005FC00
1F300008FC00
1F30000CFB00
0F30001FAC00
0F30005E5C00
0D4000B73E00
0A9005E11F00
05FA9E400F20
006B93000E30
000000000C40
000000000B50
000000000720
ENDCHAR
STARTCHAR ubreve
ENCODING 365
SWIDTH 387 0
DWIDTH 9 0
BBX 9 19 0 -1
BITMAP
0050002800
00C901DB00
002DDED200
0002981000
0000000000
0000000000
1900004500
3F00008C00
2F10008B00
2F10009B00
2F20009B00
2F3000AB00
1F4000DB00
0F5004FB00
0D600CFD00
0A806FBE00
06D6FA2F20
01DF900E60
0002000430
ENDCHAR
STARTCHAR Uring
ENCODING 366
SWIDTH 450 0
DWIDTH 11 0
BBX 11 23 0 -3
BITMAP
000013100000
001AFEF70000
008D207E0000
006D208E0000
001ADDB40000
030000003A00
4F3000007F10
4F300000AF00
3F300000CF00
3F300000EE00
2F300002FD00
2F300005FC00
1F300008FC00
1F30000CFB00
0F30001FAC00
0F30005E5C00
0D4000B73E00
0A9005E11F00
05FA9E400F20
006B93000E30
000000000C40
000000000B50
000000000720
ENDCHAR
STARTCHAR uring
ENCODING 367
SWIDTH 387 0
DWIDTH 9 0
BBX 9 18 0 -1
BITMAP
0000220000
006EEFC100
01F702E500
00E702E500
005CDC8000
1900004500
3F00008C00
2F10008B00
2F10009B00
2F20009B00
2F3000AB00
1F4000DB00
0F5004FB00
0D600CFD00
0A806FBE00
06D6FA2F20
01DF900E60
0002000430
ENDCHAR
STARTCHAR Uhungarumlaut
ENCODING 368
SWIDTH 450 0
DWIDTH 11 0
BBX 11 23 0 -3
BITMAP
000048020000
0003E96F1000
000DB5F80000
000509800000
000000000000
030000003A00
4F3000007F10
4F300000AF00
3F300000CF00
3F300000EE00
2F300002FD00
2F300005FC00
1F300008FC00
1F30000CFB00
0F30001FAC00
0F30005E5C00
0D4000B73E00
0A9005E11F00
05FA9E400F20
006B93000E30
000000000C40
000000000B50
000000000720
ENDCHAR
STARTCHAR uhungarumlaut
ENCODING 369
SWIDTH 387 0
DWIDTH 9 0
BBX 9 17 0 -1
BITMAP
0006502000
006F69C000
02F88F5000
0150C50000
1900004500
3F00008C00
2F10008B00
2F10009B00
2F20009B00
2F3000AB00
1F4000DB00
0F5004FB00
0D600CFD00
0A806FBE00
06D6FA2F20
01DF900E60
0002000430
ENDCHAR
STARTCHAR Uogonek
ENCODING 370
SWIDTH 450 0
DWIDTH 11 0
BBX 13 22 0 -7
BITMAP
030000003A0000
4F3000007F1000
4F300000AF0000
3F300000CF0000
3F300000EE0000
2F300002FD0000
2F300005FC0000
1F300008FC0000
1F30000CFB0000
0F30001FAC0000
0F30005E5C0000
0D4000B73E0000
0A9005E12F0000
05FA9E400F2000
006B93000E3000
000000005E4000
00000004FD5000
0000000C962000
0000001F400000
0000000F401630
00000009ECFF40
00000000697200
ENDCHAR
STARTCHAR uogonek
ENCODING 371
SWIDTH 387 0
DWIDTH 9 0
BBX 11 18 0 -6
BITMAP
190000450000
3F00008C0000
2F10008B0000
2F10009B0000
2F20009B0000
2F3000AB0000
1F4000DB0000
0F5004FB0000
0D600CFD0000
0A806FBE0000
06D6FA2F2000
01DF905F6000
000204F83000
00000C900000
00000F400000
00000F401630
000009EBFF50
000000698300
ENDCHAR
STARTCHAR Wcircumflex
ENCODING 372
SWIDTH 878 0
DWIDTH 21 0
BBX 21 26 0 -1
BITMAP
0000000002200000000000
000000000DD10000000000
000000007C8C1000000000
00000001E409A000000000
00000008A000C900000000
0000001E20002E80000000
0000008800000340000000
0000000000000000000A10
0000000000000000003F10
0000000000000000007C00
2B00000000AB000000A800
6F50000000EF300000E500
1EA0000003EF800003F100
07E00000089BC00006C000
02F400000C46F2000A8000
00C900002E01F6000E5000
008D00007A00AB003F1000
004F3000C5005F106C0000
001F8002F1000D60A90000
000CD006B00007D0E50000
0008F20C700001E8F10000
0004F72F2000007FD00000
0000EC7D0000000DA00000
00009FDA00000004300000
00002FF300000000000000
0000032000000000000000
ENDCHAR
STARTCHAR wcircumflex
ENCODING 373
SWIDTH 566 0
DWIDTH 14 0
BBX 13 23 0 0
BITMAP
00000130000000
00000AF4000000
00003E6E200000
0000B706D10000
0004D1009C0000
000C50000BC000
004B0000016000
00000000000000
00000000000000
00000000000000
00000130000200
3C000AE1000C50
2F400CF9000C70
0BA00E9F300C70
05F10F59B00C60
01E61F41E50C70
009C3F306D1C80
003F8F300C8C80
000DEF2003ED90
0007FF10009FA0
0002FF00001EA0
0000BD00000470
00004B00000000
ENDCHAR
STARTCHAR Ycircumflex
ENCODING 374
SWIDTH 483 0
DWIDTH 12 0
BBX 12 26 0 0
BITMAP
000014000000
00008F500000
0002E6E30000
0009904E2000
003E1007D100
00A70000AD00
03D000001700
000000000070
0000000001F1
0000000005B0
200000000A70
890000000E30
1E5000005D00
07E30000A900
00BD1001F400
001DB006E000
0002EB0B9000
00004EDF4000
000004FD0000
000000F80000
000003F30000
000007D00000
00000C800000
00002F300000
00005D000000
000068000000
ENDCHAR
STARTCHAR ycircumflex
ENCODING 375
SWIDTH 363 0
DWIDTH 9 0
BBX 9 32 0 -9
BITMAP
0003100000
001EC10000
009B9A0000
02E20B9000
0A8001D600
3D10003E60
A600000430
0000000000
0000000000
0000000000
0000000610
0000000D30
6B00000E30
3F70000F30
09E1001F30
01E9002F30
005F302F20
000BC03F20
0002F84F10
00007FBF10
00000DFF00
000004FE00
0000009D00
0000006C00
0000007B00
0000008A00
000000A900
000000B800
000000C700
000000D500
000000E400
000000F300
ENDCHAR
STARTCHAR Ydieresis
ENCODING 376
SWIDTH 483 0
DWIDTH 12 0
BBX 12 19 0 0
BITMAP
000000000070
0005D24D31F1
0004803815B0
200000000A70
890000000E30
1E5000005D00
07E30000A900
00BD1001F400
001DB006E000
0002EB0B9000
00004EDF4000
000004FD0000
000000F80000
000003F30000
000007D00000
00000C800000
00002F300000
00005D000000
000068000000
ENDCHAR
STARTCHAR Zacute
ENCODING 377
SWIDTH 670 0
DWIDTH 16 0
BBX 16 23 0 0
BITMAP
0000000040000000
00000008F0000000
0000006F60000000
0000009600000000
0000000000000000
0000000000000000
1555555555554100
0AAAAAABCDEFF500
00000000003FB000
0000000001DD1000
000000000BF30000
000000007F600000
00000004F9000000
0000002EB0000000
000000CD10000000
000009F300000000
00006F6000000000
0003F90000000000
001DB00000000000
00BD100000000000
08F3000000000000
4FECCCCCCCCCDEF7
4FEDCCBBBAAA9872
ENDCHAR
STARTCHAR zacute
ENCODING 378
SWIDTH 618 0
DWIDTH 15 0
BBX 16 19 0 -1
BITMAP
0000000031000000
00000005F4000000
0000003EA0000000
0000005900000000
0000000000000000
0000000000000000
0000005AE6000000
00038EEBF6000000
3ADFB619F2000000
1861001EB0000000
0000008F30000000
000001E800000000
000007D100000000
00000E6000000000
00005E0000000230
0000BA00158BEFF4
0001FCADFFFCA740
0003FEB853000000
0001200000000000
ENDCHAR
STARTCHAR Zdotaccent
ENCODING 379
SWIDTH 670 0
DWIDTH 16 0
BBX 16 20 0 0
BITMAP
0000000570000000
0000000A90000000
0000000000000000
1555555555554100
0AAAAAABCDEFF500
00000000003FB000
0000000001DD1000
000000000BF30000
000000007F600000
00000004F9000000
0000002EB0000000
000000CD10000000
000009F300000000
00006F6000000000
0003F90000000000
001DB00000000000
00BD100000000000
08F3000000000000
4FECCCCCCCCCDEF7
4FEDCCBBBAAA9872
ENDCHAR
STARTCHAR zdotaccent
ENCODING 380
SWIDTH 618 0
DWIDTH 15 0
BBX 16 16 0 -1
BITMAP
0000002920000000
0000004D20000000
0000000000000000
0000005AE6000000
00038EEBF6000000
3ADFB619F2000000
1861001EB0000000
0000008F30000000
000001E800000000
000007D100000000
00000E6000000000
00005E0000000230
0000BA00158BEFF4
0001FCADFFFCA740
0003FEB853000000
0001200000000000
ENDCHAR
STARTCHAR Zcaron
ENCODING 381
SWIDTH 670 0
DWIDTH 16 0
BBX 16 23 0 0
BITMAP
0000110000000000
00003C10001A5000
000007A001C70000
000000A72C500000
0000001DD3000000
0000000110000000
1555555555554100
0AAAAAABCDEFF500
00000000003FB000
0000000001DD1000
000000000BF30000
000000007F600000
00000004F9000000
0000002EB0000000
000000CD10000000
000009F300000000
00006F6000000000
0003F90000000000
001DB00000000000
00BD100000000000
08F3000000000000
4FECCCCCCCCCDEF7
4FEDCCBBBAAA9872
ENDCHAR
STARTCHAR zcaron
ENCODING 382
SWIDTH 618 0
DWIDTH 15 0
BBX 16 19 0 -1
BITMAP
0002000000000000
001C300008800000
0003D1009A100000
00006B1A80000000
00000AE600000000
0000002000000000
0000005AE6000000
00038EEBF6000000
3ADFB619F2000000
1861001EB0000000
0000008F30000000
000001E800000000
000007D100000000
00000E6000000000
00005E0000000230
0000BA00158BEFF4
0001FCADFFFCA740
0003FEB853000000
0001200000000000
ENDCHAR
STARTCHAR florin
ENCODING 402
SWIDTH 345 0
DWIDTH 8 0
BBX 10 29 -1 -7
BITMAP
0000152000
0000BFE200
0002FAB900
0005F42C00
0007F10200
0009E00000
000AC00000
000BB00000
000CA00000
000C900140
000C829EE1
000BEFD930
009FB30000
05BB900000
0007A00000
0007B00000
0006C00000
0006D00000
0006E00000
0006F00000
0006F10000
0006F20000
0006F30000
0005F40000
0005F40000
0005F40000
2569F30000
3BFFA00000
0011000000
ENDCHAR
STARTCHAR AEacute
ENCODING 508
SWIDTH 708 0
DWIDTH 17 0
BBX 17 23 0 0
BITMAP
000000022000000000
0000003E7000000000
000001DC1000000000
000003B10000000000
000000000000000000
009900010000047200
00BF306E1039EC4000
00DF904F7BFC400000
00FAE02FFC50000000
01F3B50F7000000000
03F26A0D5000000000
04F01E1C6000023000
06E00C6B70006B2000
07D007BA706D800000
09B004FCCDB2000000
0BB002FFF500000000
0CA05DFFE000000010
0EFEA59FE000004D80
0FB2002FE00019E600
1F20000DE003DB2000
3F000009E3AE600000
4E000009FFA2000000
250000036300000000
ENDCHAR
STARTCHAR aeacute
ENCODING 509
SWIDTH 705 0
DWIDTH 17 0
BBX 17 18 0 0
BITMAP
000000000310000000
000000004F40000000
00000002EB00000000
000000059000000000
000000000036400000
00006DD209FEFB0000
0006FDF65F803F7000
002FA0F6DB009F5000
00BD12FAF34CC30000
03F606FFFDE7000000
0AD00BFFF910000000
1F604FFF9000001D60
6E10DA7F7000009E20
A907F23F600005F600
E42E801F60004F7000
E6CD100FB017E60000
AFE3000DEFFB300000
292000072320000000
ENDCHAR
STARTCHAR Oslashacute
ENCODING 510
SWIDTH 382 0
DWIDTH 9 0
BBX 9 24 0 -2
BITMAP
0000004000
000008E000
00006F6000
0000960000
0000000000
0000024900
0004DFF800
002EC7FE10
00AA04DE70
02F3088AA0
08D00D48C0
0C902E07D0
1F407908D0
4F10C509C0
6D01E10B90
8B06B00E60
990A604F30
991E108E00
7B5C01E700
3FB70AD100
0BFACE3000
04FEA20000
0880000000
0830000000
ENDCHAR
STARTCHAR oslashacute
ENCODING 511
SWIDTH 266 0
DWIDTH 6 0
BBX 7 21 0 -2
BITMAP
00004000
0007F100
005F7000
00870000
00000000
00120C40
04FF8E00
09D8E900
0D40D800
1F04FC00
4D09AE00
6C0E5F00
8C5B4F00
8CA66D00
8CE19B00
6FA0D600
6F56F100
5F9E7000
7FD60000
D4000000
C0000000
ENDCHAR
STARTCHAR Scommaaccent
ENCODING 536
SWIDTH 541 0
DWIDTH 13 0
BBX 13 26 0 -8
BITMAP
00000004650000
000007DDFD0000
0003C910620000
004E5000000000
03E50000000000
0D800000000000
6E100000000000
A9000000000000
A8000000000000
5E300000000000
06DA7421000000
00048ADEECA400
00000000137F30
00000000005F40
000000003AE600
0000038DE91000
0008EFB6100000
00175100000000
00000000000000
00000000000000
00000390000000
000008F2000000
000005F2000000
000005F0000000
000005B0000000
00000450000000
ENDCHAR
STARTCHAR scommaaccent
ENCODING 537
SWIDTH 366 0
DWIDTH 9 0
BBX 9 21 0 -8
BITMAP
0000001000
0005CFF200
009D425000
07E2000000
1E60000000
5E00000000
6C0016A600
3FCCFDEF40
07A7200C70
0000006E10
000007F500
0001BF6000
004EE50000
0037100000
0000000000
0003900000
0009F20000
0006F20000
0006E00000
0006B00000
0005400000
ENDCHAR
STARTCHAR circumflex
ENCODING 710
SWIDTH 390 0
DWIDTH 9 0
BBX 9 7 0 16
BITMAP
0001400000
0009F40000
002E6E3000
00A805D100
03D1008C10
0B60000BD0
3C00000160
ENDCHAR
STARTCHAR caron
ENCODING 711
SWIDTH 390 0
DWIDTH 9 0
BBX 9 6 1 14
BITMAP
2000000000
6A00002C20
0A7003D500
01D44C3000
003EB10000
0002000000
ENDCHAR
STARTCHAR breve
ENCODING 728
SWIDTH 390 0
DWIDTH 9 0
BBX 7 4 1 14
BITMAP
24000640
3E306F40
06FDF800
00595000
ENDCHAR
STARTCHAR dotaccent
ENCODING 729
SWIDTH 128 0
DWIDTH 3 0
BBX 3 2 0 13
BITMAP
2920
5C10
ENDCHAR
STARTCHAR ring
ENCODING 730
SWIDTH 266 0
DWIDTH 6 0
BBX 6 5 0 12
BITMAP
001310
1AFEF7
8D107D
6D208E
1ADDB4
ENDCHAR
STARTCHAR ogonek
ENCODING 731
SWIDTH 366 0
DWIDTH 9 0
BBX 6 7 2 -6
BITMAP
005100
0AD100
5F3000
AA0000
A90012
6E8AEC
08DD92
ENDCHAR
STARTCHAR tilde
ENCODING 732
SWIDTH 458 0
DWIDTH 11 0
BBX 10 5 0 13
BITMAP
0002100000
03DFF70069
0DA09E13FA
1E201DCEC1
000003A810
ENDCHAR
STARTCHAR hungarumlaut
ENCODING 733
SWIDTH 239 0
DWIDTH 6 0
BBX 6 4 0 11
BITMAP
019111
0CE3D6
8E4DD1
334C10
ENDCHAR
STARTCHAR Wgrave
ENCODING 7808
SWIDTH 878 0
DWIDTH 21 0
BBX 21 24 0 -1
BITMAP
0000000004400000000000
0000000006E20000000000
0000000000CC0000000000
0000000000190000000000
0000000000000000000000
0000000000000000000A10
0000000000000000003F10
0000000000000000007C00
2B00000000AB000000A800
6F50000000EF300000E500
1EA0000003EF800003F100
07E00000089BC00006C000
02F400000C46F2000A8000
00C900002E01F6000E5000
008D00007A00AB003F1000
004F3000C5005F106C0000
001F8002F1000D60A90000
000CD006B00007D0E50000
0008F20C700001E8F10000
0004F72F2000007FD00000
0000EC7D0000000DA00000
00009FDA00000004300000
00002FF300000000000000
0000032000000000000000
ENDCHAR
STARTCHAR wgrave
ENCODING 7809
SWIDTH 566 0
DWIDTH 14 0
BBX 13 18 0 0
BITMAP
00000710000000
00000BB0000000
000003E6000000
00000056000000
00000000000000
00000130000200
3C000AE1000C50
2F400CF9000C70
0BA00E9F300C70
05F10F59B00C60
01E61F41E50C70
009C3F306D1C80
003F8F300C8C80
000DEF2003ED90
0007FF10009FA0
0002FF00001EA0
0000BD00000470
00004B00000000
ENDCHAR
STARTCHAR Wacute
ENCODING 7810
SWIDTH 878 0
DWIDTH 21 0
BBX 21 23 0 -1
BITMAP
0000000000310000000000
0000000005F30000000000
000000003F900000000000
0000000069000000000000
0000000000000000000A10
0000000000000000003F10
0000000000000000007C00
2B00000000AB000000A800
6F50000000EF300000E500
1EA0000003EF800003F100
07E00000089BC00006C000
02F400000C46F2000A8000
00C900002E01F6000E5000
008D00007A00AB003F1000
004F3000C5005F106C0000
001F8002F1000D60A90000
000CD006B00007D0E50000
0008F20C700001E8F10000
0004F72F2000007FD00000
0000EC7D0000000DA00000
00009FDA00000004300000
00002FF300000000000000
0000032000000000000000
ENDCHAR
STARTCHAR wacute
ENCODING 7811
SWIDTH 566 0
DWIDTH 14 0
BBX 13 18 0 0
BITMAP
00000001300000
0000001CA00000
000000BE200000
000001B2000000
00000000000000
00000130000200
3C000AE1000C50
2F400CF9000C70
0BA00E9F300C70
05F10F59B00C60
01E61F41E50C70
009C3F306D1C80
003F8F300C8C80
000DEF2003ED90
0007FF10009FA0
0002FF00001EA0
0000BD00000470
00004B00000000
ENDCHAR
STARTCHAR Wdieresis
ENCODING 7812
SWIDTH 878 0
DWIDTH 21 0
BBX 21 21 0 -1
BITMAP
000000006D15D200000000
0000000047038000000000
0000000000000000000A10
0000000000000000003F10
0000000000000000007C00
2B00000000AB000000A800
6F50000000EF300000E500
1EA0000003EF800003F100
07E00000089BC00006C000
02F400000C46F2000A8000
00C900002E01F6000E5000
008D00007A00AB003F1000
004F3000C5005F106C0000
001F8002F1000D60A90000
000CD006B00007D0E50000
0008F20C700001E8F10000
0004F72F2000007FD00000
0000EC7D0000000DA00000
00009FDA00000004300000
00002FF300000000000000
0000032000000000000000
ENDCHAR
STARTCHAR wdieresis
ENCODING 7813
SWIDTH 566 0
DWIDTH 14 0
BBX 13 18 0 0
BITMAP
00005D24D30000
00004803810000
00000000000000
00000000000000
00000000000000
00000130000200
3C000AE1000C50
2F400CF9000C70
0BA00E9F300C70
05F10F59B00C60
01E61F41E50C70
009C3F306D1C80
003F8F300C8C80
000DEF2003ED90
0007FF10009FA0
0002FF00001EA0
0000BD00000470
00004B00000000
ENDCHAR
STARTCHAR Ygrave
ENCODING 7922
SWIDTH 483 0
DWIDTH 12 0
BBX 12 24 0 0
BITMAP
000044000000
00006E200000
00000CB00000
000001900000
000000000000
000000000070
0000000001F1
0000000005B0
200000000A70
890000000E30
1E5000005D00
07E30000A900
00BD1001F400
001DB006E000
0002EB0B9000
00004EDF4000
000004FD0000
000000F80000
000003F30000
000007D00000
00000C800000
00002F300000
00005D000000
000068000000
ENDCHAR
STARTCHAR ygrave
ENCODING 7923
SWIDTH 363 0
DWIDTH 9 0
BBX 9 27 0 -9
BITMAP
0026000000
003F400000
0009E00000
0000910000
0000000000
0000000610
0000000D30
6B00000E30
3F70000F30
09E1001F30
01E9002F30
005F302F20
000BC03F20
0002F84F10
00007FBF10
00000DFF00
000004FE00
0000009D00
0000006C00
0000007B00
0000008A00
000000A900
000000B800
000000C700
000000D500
000000E400
000000F300
ENDCHAR
STARTCHAR endash
ENCODING 8211
SWIDTH 399 0
DWIDTH 10 0
BBX 9 4 0 4
BITMAP
0000005AB0
00028EFD80
38CFC72000
5861000000
ENDCHAR
STARTCHAR emdash
ENCODING 8212
SWIDTH 549 0
DWIDTH 13 0
BBX 12 4 0 4
BITMAP
000000000244
0000148BEFFC
38ADFEB96410
586410000000
ENDCHAR
STARTCHAR quoteleft
ENCODING 8216
SWIDTH 155 0
DWIDTH 4 0
BBX 3 7 0 8
BITMAP
2E10
2F50
1F60
0E60
0C50
0A50
0540
ENDCHAR
STARTCHAR quoteright
ENCODING 8217
SWIDTH 155 0
DWIDTH 4 0
BBX 3 7 0 8
BITMAP
2E10
2F50
1F60
0E60
0C50
0A50
0540
ENDCHAR
STARTCHAR quotesinglbase
ENCODING 8218
SWIDTH 155 0
DWIDTH 4 0
BBX 2 8 1 -1
BITMAP
82
E7
D9
B9
99
78
48
01
ENDCHAR
STARTCHAR quotedblleft
ENCODING 8220
SWIDTH 212 0
DWIDTH 5 0
BBX 5 7 0 12
BITMAP
4B0610
3D0A30
2E0A30
1F0A30
0F1A30
0D1A30
091110
ENDCHAR
STARTCHAR quotedblright
ENCODING 8221
SWIDTH 212 0
DWIDTH 5 0
BBX 5 7 0 12
BITMAP
4B0610
3D0A30
2E0A30
1F0A30
0F1A30
0D1A30
091110
ENDCHAR
STARTCHAR quotedblbase
ENCODING 8222
SWIDTH 212 0
DWIDTH 5 0
BBX 5 8 0 -1
BITMAP
3A0410
3E0940
1F0940
0F1940
0E2940
0C2940
092220
010000
ENDCHAR
STARTCHAR dagger
ENCODING 8224
SWIDTH 268 0
DWIDTH 6 0
BBX 8 20 -1 -1
BITMAP
00120000
007D0000
007C0000
007B0000
008A0000
008A0043
008DAEF7
17EFE920
BFFB1000
66BA0000
00AB0000
009B0000
008C0000
007D0000
007D0000
006E0000
005E0000
004F0000
003F0000
00160000
ENDCHAR
STARTCHAR daggerdbl
ENCODING 8225
SWIDTH 326 0
DWIDTH 8 0
BBX 8 20 0 -1
BITMAP
00130000
004F1000
004F0000
005E0000
005D0000
005D0034
005EAEF9
06EFFA30
9FFD1000
479D1598
00AFEFC7
4EFE4100
447E0000
006E0000
005F0000
003F1000
002F1000
001F2000
000F3000
00061000
ENDCHAR
STARTCHAR bullet
ENCODING 8226
SWIDTH 189 0
DWIDTH 5 0
BBX 3 4 1 5
BITMAP
3A70
EFD0
EF90
4710
ENDCHAR
STARTCHAR ellipsis
ENCODING 8230
SWIDTH 387 0
DWIDTH 9 0
BBX 9 2 0 0
BITMAP
1720630640
4F43F51F70
ENDCHAR
STARTCHAR guilsinglleft
ENCODING 8249
SWIDTH 409 0
DWIDTH 10 0
BBX 9 13 1 3
BITMAP
0000000110
0000001B80
000002CD10
00004ED200
0006FC1000
008F700000
1BD3000000
BD10000000
7F81000000
05ED500000
002AFB3000
00004DFC10
0000008A00
ENDCHAR
STARTCHAR guilsinglright
ENCODING 8250
SWIDTH 450 0
DWIDTH 11 0
BBX 9 14 1 2
BITMAP
8600000000
9FC4000000
03CFA20000
0005CF8100
000006DD20
0000000E50
0000005E10
000005E400
00008F5000
002BF50000
03EE400000
4EC2000000
C800000000
1000000000
ENDCHAR
STARTCHAR fraction
ENCODING 8260
SWIDTH 306 0
DWIDTH 7 0
BBX 7 19 0 -2
BITMAP
00000670
00000C50
00002F10
00006B00
0000B600
0001F200
0005C000
000A7000
000E3000
004D0000
00880000
00D40000
02E00000
07900000
0C500000
1E100000
6A000000
A6000000
A1000000
ENDCHAR
STARTCHAR Euro
ENCODING 8364
SWIDTH 589 0
DWIDTH 14 0
BBX 14 19 0 -1
BITMAP
00000001650000
0000003ECE9000
000001D702D000
000008B0000000
00001E40000000
00006D00000000
0000A800000000
0000E412300000
168BFEFC500000
2DCDC510000000
000A8000330000
000C76BFE60000
258ED964100000
8D8F4000000043
000D50000002E6
000A9000004EC0
0004F6346BFB10
00006EFFFB4000
00000023100000
ENDCHAR
STARTCHAR trademark
ENCODING 8482
SWIDTH 1278 0
DWIDTH 31 0
BBX 30 19 0 0
BITMAP
000000000000000420000000000300
000000000000000EE4000000007D00
00000009B4568ABFFE20000000CF00
01368ACFFEDCA96A9CA0000002DF10
8FFDA759F000000883F30000068E20
23100005F000000690AB00000B4C40
00000003F0000005A03F30001E0B50
00000001F1000004B00AA0006A0A60
00000000F3000003D003F300B50870
00000000E5000003E000AA01E10780
00000000C7000002F1003F36B006A0
00000000B9000002F3000BBC5004B0
000000009B000002F40003FE0003D0
000000008D000002F60000A50002F0
000000006F000001F70000000001F2
000000005F100001F90000000000E5
000000003F200000FA0000000000D9
000000000F300000EA0000000000CC
000000000C400000CA000000000098
ENDCHAR
STARTCHAR minus
ENCODING 8722
SWIDTH 358 0
DWIDTH 9 0
BBX 7 2 1 6
BITMAP
3568ABC0
ABA98770
ENDCHAR
STARTCHAR commaaccent
ENCODING 63171
SWIDTH 450 0
DWIDTH 11 0
BBX 2 6 4 -8
BITMAP
66
DC
AC
A9
B6
72
ENDCHAR
STARTCHAR fi
ENCODING 64257
SWIDTH 409 0
DWIDTH 10 0
BBX 9 23 0 -1
BITMAP
0001520000
000BFE2000
002FAB9000
005F42C000
007F103900
009E000A10
00AC000000
00BB000000
00CA000640
00C9001C80
00C818EF80
00BEFFBE80
09FB410C80
5BB9000C80
008A000C80
007C000C80
007D000B80
006F000B80
005F100A80
004F200A80
003F200980
001E100980
0000000210
ENDCHAR
STARTCHAR fl
ENCODING 64258
SWIDTH 416 0
DWIDTH 10 0
BBX 10 22 0 0
BITMAP
0001520000
000BFE2000
002FAB9C20
005F42CD40
007F102B50
009E000970
00AC000880
00BB000790
00CA0006A0
00C90018B0
00C818EFB0
00BEFFB6C0
09FB4103D0
5BB90003D0
008A0002E0
007C0002E0
007D0002F0
006F0003F0
005F1003F1
004F2004F1
003F2005F2
001E1004F1
ENDCHAR
STARTCHAR .notdef
ENCODING -1
SWIDTH 450 0
DWIDTH 11 0
BBX 1 1 0 0
BITMAP
00
ENDCHAR
STARTCHAR .null
ENCODING -1
SWIDTH 0 0
DWIDTH 0 0
BBX 1 1 0 0
BITMAP
00
ENDCHAR
STARTCHAR nonmarkingreturn
ENCODING -1
SWIDTH 450 0
DWIDTH 11 0
BBX 1 1 0 0
BITMAP
00
ENDCHAR
ENDFONT
